#usda 1.0
(
    defaultPrim = "World"
    metersPerUnit = 1
    upAxis = "Y"
    doc = "Clumping driven by Ptex maps: a region map decides which strands clump together, a second map how tightly."
)

# PTEX CLUMP MAPS
#
#   scatter -> grow -> frizz -> clump -> width
#
# `clump` is a UsdGenClump with two connected controls, each an expression
# reading a UsdGenPtexMap through the expression prim's input:<name>
# relationship:
#
#   usdGen:clump:map    <- ptex("clumpRegions")
#       maps/clump_regions.ptx holds one random value per voronoi cell (about
#       90 cells over the skin, with wobbly borders). Strands whose roots read
#       the same value form one clump, centred on the member nearest the
#       cell's centroid: the map's cells ARE the clumps (the host groomer's clump map).
#   usdGen:clump:amount <- 0.3 + 0.65 * ptex("clumpTightness")
#       maps/clump_tightness.ptx has six large patches of random value, so
#       some areas clump tightly and others stay loose.
#
# usdGen:clump:levels = 2 splits every map clump into density-scattered
# sub-clumps, pulled at tightnessReduction strength toward sub-centres that
# have already been clumped once. The clumpId_0 / clumpId_1 primvars carry the
# cell per strand for shading.
#
# Maps are baked from this file's skin by examples/tools/bake_maps.ps1
# (usdGenBakePtex). Edit usdGen:map:file, or the maps themselves plus
# usdGen:map:* on the map prims, and the clumps recook.
#
# View it:   .\bin\launch_usdview.ps1 examples\clump-ptex-plane.usda
# Record it: .\bin\record_usd.ps1 -Scene examples\clump-ptex-plane.usda `
#                -Output out.png -Camera /World/Cam -Complexity veryhigh

def Xform "World"
{
    def Camera "Cam"
    {
        uniform token[] xformOpOrder = ["xformOp:transform"]
        matrix4d xformOp:transform = ( (0.744049, 0, -0.668125, 0), (-0.250223, 0.927221, -0.278658, 0), (0.6195, 0.374516, 0.689897, 0), (2.2, 1.45, 2.45, 1) )
        float2 clippingRange = (0.05, 50)
        float focalLength = 35
        float horizontalAperture = 24
        float verticalAperture = 18
    }

    def DistantLight "Key"
    {
        float inputs:intensity = 10
        bool inputs:normalize = 1
        color3f inputs:color = (1, 0.98, 0.94)
        float3 xformOp:rotateXYZ = (-10, 40, 0)
        uniform token[] xformOpOrder = ["xformOp:rotateXYZ"]
    }

    def DomeLight "Sky"
    {
        asset inputs:texture:file = @./maps/StinsonBeach.hdr@
        float inputs:intensity = 2
        color3f inputs:color = (1, 1, 1)
    }

    def Mesh "Skin" (
        prepend apiSchemas = ["UsdGenRestAPI"]
    )
    {
        uniform token subdivisionScheme = "none"
        int[] faceVertexCounts = [
            4, 4, 4, 4, 4, 4, 4, 4, 4, 4, 4, 4, 4, 4, 4, 4, 4, 4, 4, 4, 4, 4, 4, 4,
            4, 4, 4, 4, 4, 4, 4, 4, 4, 4, 4, 4, 4, 4, 4, 4, 4, 4, 4, 4, 4, 4, 4, 4,
            4, 4, 4, 4, 4, 4, 4, 4, 4, 4, 4, 4, 4, 4, 4, 4, 4, 4, 4, 4, 4, 4, 4, 4,
            4, 4, 4, 4, 4, 4, 4, 4, 4, 4, 4, 4, 4, 4, 4, 4, 4, 4, 4, 4, 4, 4, 4, 4,
            4, 4, 4, 4, 4, 4, 4, 4, 4, 4, 4, 4, 4, 4, 4, 4, 4, 4, 4, 4, 4, 4, 4, 4,
            4, 4, 4, 4, 4, 4, 4, 4, 4, 4, 4, 4, 4, 4, 4, 4, 4, 4, 4, 4, 4, 4, 4, 4
        ]
        int[] faceVertexIndices = [
            0, 13, 14, 1, 1, 14, 15, 2, 2, 15, 16, 3, 3, 16, 17, 4, 4, 17, 18, 5,
            5, 18, 19, 6, 6, 19, 20, 7, 7, 20, 21, 8, 8, 21, 22, 9, 9, 22, 23, 10,
            10, 23, 24, 11, 11, 24, 25, 12, 13, 26, 27, 14, 14, 27, 28, 15, 15, 28, 29, 16,
            16, 29, 30, 17, 17, 30, 31, 18, 18, 31, 32, 19, 19, 32, 33, 20, 20, 33, 34, 21,
            21, 34, 35, 22, 22, 35, 36, 23, 23, 36, 37, 24, 24, 37, 38, 25, 26, 39, 40, 27,
            27, 40, 41, 28, 28, 41, 42, 29, 29, 42, 43, 30, 30, 43, 44, 31, 31, 44, 45, 32,
            32, 45, 46, 33, 33, 46, 47, 34, 34, 47, 48, 35, 35, 48, 49, 36, 36, 49, 50, 37,
            37, 50, 51, 38, 39, 52, 53, 40, 40, 53, 54, 41, 41, 54, 55, 42, 42, 55, 56, 43,
            43, 56, 57, 44, 44, 57, 58, 45, 45, 58, 59, 46, 46, 59, 60, 47, 47, 60, 61, 48,
            48, 61, 62, 49, 49, 62, 63, 50, 50, 63, 64, 51, 52, 65, 66, 53, 53, 66, 67, 54,
            54, 67, 68, 55, 55, 68, 69, 56, 56, 69, 70, 57, 57, 70, 71, 58, 58, 71, 72, 59,
            59, 72, 73, 60, 60, 73, 74, 61, 61, 74, 75, 62, 62, 75, 76, 63, 63, 76, 77, 64,
            65, 78, 79, 66, 66, 79, 80, 67, 67, 80, 81, 68, 68, 81, 82, 69, 69, 82, 83, 70,
            70, 83, 84, 71, 71, 84, 85, 72, 72, 85, 86, 73, 73, 86, 87, 74, 74, 87, 88, 75,
            75, 88, 89, 76, 76, 89, 90, 77, 78, 91, 92, 79, 79, 92, 93, 80, 80, 93, 94, 81,
            81, 94, 95, 82, 82, 95, 96, 83, 83, 96, 97, 84, 84, 97, 98, 85, 85, 98, 99, 86,
            86, 99, 100, 87, 87, 100, 101, 88, 88, 101, 102, 89, 89, 102, 103, 90, 91, 104, 105, 92,
            92, 105, 106, 93, 93, 106, 107, 94, 94, 107, 108, 95, 95, 108, 109, 96, 96, 109, 110, 97,
            97, 110, 111, 98, 98, 111, 112, 99, 99, 112, 113, 100, 100, 113, 114, 101, 101, 114, 115, 102,
            102, 115, 116, 103, 104, 117, 118, 105, 105, 118, 119, 106, 106, 119, 120, 107, 107, 120, 121, 108,
            108, 121, 122, 109, 109, 122, 123, 110, 110, 123, 124, 111, 111, 124, 125, 112, 112, 125, 126, 113,
            113, 126, 127, 114, 114, 127, 128, 115, 115, 128, 129, 116, 117, 130, 131, 118, 118, 131, 132, 119,
            119, 132, 133, 120, 120, 133, 134, 121, 121, 134, 135, 122, 122, 135, 136, 123, 123, 136, 137, 124,
            124, 137, 138, 125, 125, 138, 139, 126, 126, 139, 140, 127, 127, 140, 141, 128, 128, 141, 142, 129,
            130, 143, 144, 131, 131, 144, 145, 132, 132, 145, 146, 133, 133, 146, 147, 134, 134, 147, 148, 135,
            135, 148, 149, 136, 136, 149, 150, 137, 137, 150, 151, 138, 138, 151, 152, 139, 139, 152, 153, 140,
            140, 153, 154, 141, 141, 154, 155, 142, 143, 156, 157, 144, 144, 157, 158, 145, 145, 158, 159, 146,
            146, 159, 160, 147, 147, 160, 161, 148, 148, 161, 162, 149, 149, 162, 163, 150, 150, 163, 164, 151,
            151, 164, 165, 152, 152, 165, 166, 153, 153, 166, 167, 154, 154, 167, 168, 155
        ]
        point3f[] points = [
            (-1, 0, -1), (-0.833333, 0, -1), (-0.666667, 0, -1), (-0.5, 0, -1), (-0.333333, 0, -1), (-0.166667, 0, -1),
            (0, 0, -1), (0.166667, 0, -1), (0.333333, 0, -1), (0.5, 0, -1), (0.666667, 0, -1), (0.833333, 0, -1),
            (1, 0, -1), (-1, 0, -0.833333), (-0.833333, 0, -0.833333), (-0.666667, 0, -0.833333), (-0.5, 0, -0.833333), (-0.333333, 0, -0.833333),
            (-0.166667, 0, -0.833333), (0, 0, -0.833333), (0.166667, 0, -0.833333), (0.333333, 0, -0.833333), (0.5, 0, -0.833333), (0.666667, 0, -0.833333),
            (0.833333, 0, -0.833333), (1, 0, -0.833333), (-1, 0, -0.666667), (-0.833333, 0, -0.666667), (-0.666667, 0, -0.666667), (-0.5, 0, -0.666667),
            (-0.333333, 0, -0.666667), (-0.166667, 0, -0.666667), (0, 0, -0.666667), (0.166667, 0, -0.666667), (0.333333, 0, -0.666667), (0.5, 0, -0.666667),
            (0.666667, 0, -0.666667), (0.833333, 0, -0.666667), (1, 0, -0.666667), (-1, 0, -0.5), (-0.833333, 0, -0.5), (-0.666667, 0, -0.5),
            (-0.5, 0, -0.5), (-0.333333, 0, -0.5), (-0.166667, 0, -0.5), (0, 0, -0.5), (0.166667, 0, -0.5), (0.333333, 0, -0.5),
            (0.5, 0, -0.5), (0.666667, 0, -0.5), (0.833333, 0, -0.5), (1, 0, -0.5), (-1, 0, -0.333333), (-0.833333, 0, -0.333333),
            (-0.666667, 0, -0.333333), (-0.5, 0, -0.333333), (-0.333333, 0, -0.333333), (-0.166667, 0, -0.333333), (0, 0, -0.333333), (0.166667, 0, -0.333333),
            (0.333333, 0, -0.333333), (0.5, 0, -0.333333), (0.666667, 0, -0.333333), (0.833333, 0, -0.333333), (1, 0, -0.333333), (-1, 0, -0.166667),
            (-0.833333, 0, -0.166667), (-0.666667, 0, -0.166667), (-0.5, 0, -0.166667), (-0.333333, 0, -0.166667), (-0.166667, 0, -0.166667), (0, 0, -0.166667),
            (0.166667, 0, -0.166667), (0.333333, 0, -0.166667), (0.5, 0, -0.166667), (0.666667, 0, -0.166667), (0.833333, 0, -0.166667), (1, 0, -0.166667),
            (-1, 0, 0), (-0.833333, 0, 0), (-0.666667, 0, 0), (-0.5, 0, 0), (-0.333333, 0, 0), (-0.166667, 0, 0),
            (0, 0, 0), (0.166667, 0, 0), (0.333333, 0, 0), (0.5, 0, 0), (0.666667, 0, 0), (0.833333, 0, 0),
            (1, 0, 0), (-1, 0, 0.166667), (-0.833333, 0, 0.166667), (-0.666667, 0, 0.166667), (-0.5, 0, 0.166667), (-0.333333, 0, 0.166667),
            (-0.166667, 0, 0.166667), (0, 0, 0.166667), (0.166667, 0, 0.166667), (0.333333, 0, 0.166667), (0.5, 0, 0.166667), (0.666667, 0, 0.166667),
            (0.833333, 0, 0.166667), (1, 0, 0.166667), (-1, 0, 0.333333), (-0.833333, 0, 0.333333), (-0.666667, 0, 0.333333), (-0.5, 0, 0.333333),
            (-0.333333, 0, 0.333333), (-0.166667, 0, 0.333333), (0, 0, 0.333333), (0.166667, 0, 0.333333), (0.333333, 0, 0.333333), (0.5, 0, 0.333333),
            (0.666667, 0, 0.333333), (0.833333, 0, 0.333333), (1, 0, 0.333333), (-1, 0, 0.5), (-0.833333, 0, 0.5), (-0.666667, 0, 0.5),
            (-0.5, 0, 0.5), (-0.333333, 0, 0.5), (-0.166667, 0, 0.5), (0, 0, 0.5), (0.166667, 0, 0.5), (0.333333, 0, 0.5),
            (0.5, 0, 0.5), (0.666667, 0, 0.5), (0.833333, 0, 0.5), (1, 0, 0.5), (-1, 0, 0.666667), (-0.833333, 0, 0.666667),
            (-0.666667, 0, 0.666667), (-0.5, 0, 0.666667), (-0.333333, 0, 0.666667), (-0.166667, 0, 0.666667), (0, 0, 0.666667), (0.166667, 0, 0.666667),
            (0.333333, 0, 0.666667), (0.5, 0, 0.666667), (0.666667, 0, 0.666667), (0.833333, 0, 0.666667), (1, 0, 0.666667), (-1, 0, 0.833333),
            (-0.833333, 0, 0.833333), (-0.666667, 0, 0.833333), (-0.5, 0, 0.833333), (-0.333333, 0, 0.833333), (-0.166667, 0, 0.833333), (0, 0, 0.833333),
            (0.166667, 0, 0.833333), (0.333333, 0, 0.833333), (0.5, 0, 0.833333), (0.666667, 0, 0.833333), (0.833333, 0, 0.833333), (1, 0, 0.833333),
            (-1, 0, 1), (-0.833333, 0, 1), (-0.666667, 0, 1), (-0.5, 0, 1), (-0.333333, 0, 1), (-0.166667, 0, 1),
            (0, 0, 1), (0.166667, 0, 1), (0.333333, 0, 1), (0.5, 0, 1), (0.666667, 0, 1), (0.833333, 0, 1),
            (1, 0, 1)
        ]
        point3f[] primvars:rest = [
            (-1, 0, -1), (-0.833333, 0, -1), (-0.666667, 0, -1), (-0.5, 0, -1), (-0.333333, 0, -1), (-0.166667, 0, -1),
            (0, 0, -1), (0.166667, 0, -1), (0.333333, 0, -1), (0.5, 0, -1), (0.666667, 0, -1), (0.833333, 0, -1),
            (1, 0, -1), (-1, 0, -0.833333), (-0.833333, 0, -0.833333), (-0.666667, 0, -0.833333), (-0.5, 0, -0.833333), (-0.333333, 0, -0.833333),
            (-0.166667, 0, -0.833333), (0, 0, -0.833333), (0.166667, 0, -0.833333), (0.333333, 0, -0.833333), (0.5, 0, -0.833333), (0.666667, 0, -0.833333),
            (0.833333, 0, -0.833333), (1, 0, -0.833333), (-1, 0, -0.666667), (-0.833333, 0, -0.666667), (-0.666667, 0, -0.666667), (-0.5, 0, -0.666667),
            (-0.333333, 0, -0.666667), (-0.166667, 0, -0.666667), (0, 0, -0.666667), (0.166667, 0, -0.666667), (0.333333, 0, -0.666667), (0.5, 0, -0.666667),
            (0.666667, 0, -0.666667), (0.833333, 0, -0.666667), (1, 0, -0.666667), (-1, 0, -0.5), (-0.833333, 0, -0.5), (-0.666667, 0, -0.5),
            (-0.5, 0, -0.5), (-0.333333, 0, -0.5), (-0.166667, 0, -0.5), (0, 0, -0.5), (0.166667, 0, -0.5), (0.333333, 0, -0.5),
            (0.5, 0, -0.5), (0.666667, 0, -0.5), (0.833333, 0, -0.5), (1, 0, -0.5), (-1, 0, -0.333333), (-0.833333, 0, -0.333333),
            (-0.666667, 0, -0.333333), (-0.5, 0, -0.333333), (-0.333333, 0, -0.333333), (-0.166667, 0, -0.333333), (0, 0, -0.333333), (0.166667, 0, -0.333333),
            (0.333333, 0, -0.333333), (0.5, 0, -0.333333), (0.666667, 0, -0.333333), (0.833333, 0, -0.333333), (1, 0, -0.333333), (-1, 0, -0.166667),
            (-0.833333, 0, -0.166667), (-0.666667, 0, -0.166667), (-0.5, 0, -0.166667), (-0.333333, 0, -0.166667), (-0.166667, 0, -0.166667), (0, 0, -0.166667),
            (0.166667, 0, -0.166667), (0.333333, 0, -0.166667), (0.5, 0, -0.166667), (0.666667, 0, -0.166667), (0.833333, 0, -0.166667), (1, 0, -0.166667),
            (-1, 0, 0), (-0.833333, 0, 0), (-0.666667, 0, 0), (-0.5, 0, 0), (-0.333333, 0, 0), (-0.166667, 0, 0),
            (0, 0, 0), (0.166667, 0, 0), (0.333333, 0, 0), (0.5, 0, 0), (0.666667, 0, 0), (0.833333, 0, 0),
            (1, 0, 0), (-1, 0, 0.166667), (-0.833333, 0, 0.166667), (-0.666667, 0, 0.166667), (-0.5, 0, 0.166667), (-0.333333, 0, 0.166667),
            (-0.166667, 0, 0.166667), (0, 0, 0.166667), (0.166667, 0, 0.166667), (0.333333, 0, 0.166667), (0.5, 0, 0.166667), (0.666667, 0, 0.166667),
            (0.833333, 0, 0.166667), (1, 0, 0.166667), (-1, 0, 0.333333), (-0.833333, 0, 0.333333), (-0.666667, 0, 0.333333), (-0.5, 0, 0.333333),
            (-0.333333, 0, 0.333333), (-0.166667, 0, 0.333333), (0, 0, 0.333333), (0.166667, 0, 0.333333), (0.333333, 0, 0.333333), (0.5, 0, 0.333333),
            (0.666667, 0, 0.333333), (0.833333, 0, 0.333333), (1, 0, 0.333333), (-1, 0, 0.5), (-0.833333, 0, 0.5), (-0.666667, 0, 0.5),
            (-0.5, 0, 0.5), (-0.333333, 0, 0.5), (-0.166667, 0, 0.5), (0, 0, 0.5), (0.166667, 0, 0.5), (0.333333, 0, 0.5),
            (0.5, 0, 0.5), (0.666667, 0, 0.5), (0.833333, 0, 0.5), (1, 0, 0.5), (-1, 0, 0.666667), (-0.833333, 0, 0.666667),
            (-0.666667, 0, 0.666667), (-0.5, 0, 0.666667), (-0.333333, 0, 0.666667), (-0.166667, 0, 0.666667), (0, 0, 0.666667), (0.166667, 0, 0.666667),
            (0.333333, 0, 0.666667), (0.5, 0, 0.666667), (0.666667, 0, 0.666667), (0.833333, 0, 0.666667), (1, 0, 0.666667), (-1, 0, 0.833333),
            (-0.833333, 0, 0.833333), (-0.666667, 0, 0.833333), (-0.5, 0, 0.833333), (-0.333333, 0, 0.833333), (-0.166667, 0, 0.833333), (0, 0, 0.833333),
            (0.166667, 0, 0.833333), (0.333333, 0, 0.833333), (0.5, 0, 0.833333), (0.666667, 0, 0.833333), (0.833333, 0, 0.833333), (1, 0, 0.833333),
            (-1, 0, 1), (-0.833333, 0, 1), (-0.666667, 0, 1), (-0.5, 0, 1), (-0.333333, 0, 1), (-0.166667, 0, 1),
            (0, 0, 1), (0.166667, 0, 1), (0.333333, 0, 1), (0.5, 0, 1), (0.666667, 0, 1), (0.833333, 0, 1),
            (1, 0, 1)
        ] (
            interpolation = "vertex"
        )
        texCoord2f[] primvars:st = [
            (0, 0), (0.0833333, 0), (0.166667, 0), (0.25, 0), (0.333333, 0), (0.416667, 0), (0.5, 0), (0.583333, 0),
            (0.666667, 0), (0.75, 0), (0.833333, 0), (0.916667, 0), (1, 0), (0, 0.0833333), (0.0833333, 0.0833333), (0.166667, 0.0833333),
            (0.25, 0.0833333), (0.333333, 0.0833333), (0.416667, 0.0833333), (0.5, 0.0833333), (0.583333, 0.0833333), (0.666667, 0.0833333), (0.75, 0.0833333), (0.833333, 0.0833333),
            (0.916667, 0.0833333), (1, 0.0833333), (0, 0.166667), (0.0833333, 0.166667), (0.166667, 0.166667), (0.25, 0.166667), (0.333333, 0.166667), (0.416667, 0.166667),
            (0.5, 0.166667), (0.583333, 0.166667), (0.666667, 0.166667), (0.75, 0.166667), (0.833333, 0.166667), (0.916667, 0.166667), (1, 0.166667), (0, 0.25),
            (0.0833333, 0.25), (0.166667, 0.25), (0.25, 0.25), (0.333333, 0.25), (0.416667, 0.25), (0.5, 0.25), (0.583333, 0.25), (0.666667, 0.25),
            (0.75, 0.25), (0.833333, 0.25), (0.916667, 0.25), (1, 0.25), (0, 0.333333), (0.0833333, 0.333333), (0.166667, 0.333333), (0.25, 0.333333),
            (0.333333, 0.333333), (0.416667, 0.333333), (0.5, 0.333333), (0.583333, 0.333333), (0.666667, 0.333333), (0.75, 0.333333), (0.833333, 0.333333), (0.916667, 0.333333),
            (1, 0.333333), (0, 0.416667), (0.0833333, 0.416667), (0.166667, 0.416667), (0.25, 0.416667), (0.333333, 0.416667), (0.416667, 0.416667), (0.5, 0.416667),
            (0.583333, 0.416667), (0.666667, 0.416667), (0.75, 0.416667), (0.833333, 0.416667), (0.916667, 0.416667), (1, 0.416667), (0, 0.5), (0.0833333, 0.5),
            (0.166667, 0.5), (0.25, 0.5), (0.333333, 0.5), (0.416667, 0.5), (0.5, 0.5), (0.583333, 0.5), (0.666667, 0.5), (0.75, 0.5),
            (0.833333, 0.5), (0.916667, 0.5), (1, 0.5), (0, 0.583333), (0.0833333, 0.583333), (0.166667, 0.583333), (0.25, 0.583333), (0.333333, 0.583333),
            (0.416667, 0.583333), (0.5, 0.583333), (0.583333, 0.583333), (0.666667, 0.583333), (0.75, 0.583333), (0.833333, 0.583333), (0.916667, 0.583333), (1, 0.583333),
            (0, 0.666667), (0.0833333, 0.666667), (0.166667, 0.666667), (0.25, 0.666667), (0.333333, 0.666667), (0.416667, 0.666667), (0.5, 0.666667), (0.583333, 0.666667),
            (0.666667, 0.666667), (0.75, 0.666667), (0.833333, 0.666667), (0.916667, 0.666667), (1, 0.666667), (0, 0.75), (0.0833333, 0.75), (0.166667, 0.75),
            (0.25, 0.75), (0.333333, 0.75), (0.416667, 0.75), (0.5, 0.75), (0.583333, 0.75), (0.666667, 0.75), (0.75, 0.75), (0.833333, 0.75),
            (0.916667, 0.75), (1, 0.75), (0, 0.833333), (0.0833333, 0.833333), (0.166667, 0.833333), (0.25, 0.833333), (0.333333, 0.833333), (0.416667, 0.833333),
            (0.5, 0.833333), (0.583333, 0.833333), (0.666667, 0.833333), (0.75, 0.833333), (0.833333, 0.833333), (0.916667, 0.833333), (1, 0.833333), (0, 0.916667),
            (0.0833333, 0.916667), (0.166667, 0.916667), (0.25, 0.916667), (0.333333, 0.916667), (0.416667, 0.916667), (0.5, 0.916667), (0.583333, 0.916667), (0.666667, 0.916667),
            (0.75, 0.916667), (0.833333, 0.916667), (0.916667, 0.916667), (1, 0.916667), (0, 1), (0.0833333, 1), (0.166667, 1), (0.25, 1),
            (0.333333, 1), (0.416667, 1), (0.5, 1), (0.583333, 1), (0.666667, 1), (0.75, 1), (0.833333, 1), (0.916667, 1),
            (1, 1)
        ] (
            interpolation = "vertex"
        )
        color3f[] primvars:displayColor = [(0.22, 0.2, 0.19)]
    }

    def Xform "Groom"
    {
        def UsdGenDescription "Fur"
        {
            rel usdGen:surface = </World/Skin>
            uniform token usdGen:curve:basis = "bspline"
            float usdGen:width:default = 0.004

            def Scope "Ops"
            {
                def UsdGenWidth "width"
                {
                    float usdGen:width = 0.005
                    float2[] usdGen:width:knots = [(0, 1), (0.6, 0.8), (1, 0.15)]
                    bool usdGen:replace = true
                }

                def UsdGenClump "clump"
                {
                    int usdGen:seed = 23
                    float usdGen:clump:amount = 0.8
                    float usdGen:clump:amount.connect = </World/Groom/Fur/Expressions/clumpTightness>
                    float usdGen:clump:map = 0
                    float usdGen:clump:map.connect = </World/Groom/Fur/Expressions/clumpRegions>
                    float2[] usdGen:clump:profile:knots = [(0, 0), (0.35, 0.45), (1, 1)]
                    uniform token usdGen:clump:method = "linearBlend"
                    float usdGen:clump:size = 0.6
                    int usdGen:clump:levels = 2
                    float usdGen:clump:density = 12
                    float usdGen:clump:sizeReduction = 0.5
                    float usdGen:clump:tightnessReduction = 0.6
                    float usdGen:clump:stray:rate = 0.04
                    float usdGen:clump:stray:amount = 0.8
                    float usdGen:clump:stray:falloff = 0.7
                    float usdGen:preserveLength = 1
                }

                def UsdGenNoise "frizz"
                {
                    int usdGen:seed = 7
                    float usdGen:noise:magnitude = 0.035
                    float2[] usdGen:noise:magnitude:knots = [(0, 0), (0.5, 0.5), (1, 1)]
                    float usdGen:noise:frequency = 3
                    int usdGen:noise:octaves = 2
                    float usdGen:preserveLength = 1
                }

                def UsdGenGrow "grow"
                {
                    int usdGen:seed = 19
                    int usdGen:segments = 12
                    float usdGen:length = 0.34
                    float2 usdGen:lengthRandom = (0.8, 1.15)
                    uniform token usdGen:direction = "vector"
                    vector3f usdGen:directionVector = (0.12, 1, 0.08)
                }

                def UsdGenScatter "scatter"
                {
                    int usdGen:seed = 41
                    float usdGen:density = 4000
                }
            }

            def Scope "Expressions"
            {
                # Clump membership: the region map's value at the root.
                def UsdGenExpression "clumpRegions"
                {
                    string usdGen:expr:source = """ptex("clumpRegions")"""
                    rel input:clumpRegions = </World/Groom/Fur/Maps/clumpRegions>
                    custom float outputs:result
                }

                # Pull strength: a coarse map remapped into [0.3, 0.95].
                def UsdGenExpression "clumpTightness"
                {
                    string usdGen:expr:source = """0.3 + 0.65 * ptex("clumpTightness")"""
                    rel input:clumpTightness = </World/Groom/Fur/Maps/clumpTightness>
                    custom float outputs:result
                }
            }

            def Scope "Maps"
            {
                def UsdGenPtexMap "clumpRegions"
                {
                    asset usdGen:map:file = @./maps/clump_regions.ptx@
                    token usdGen:map:filter = "nearest"
                    uniform token usdGen:map:channel = "r"
                    float2 usdGen:map:clamp = (0, 0)
                }

                def UsdGenPtexMap "clumpTightness"
                {
                    asset usdGen:map:file = @./maps/clump_tightness.ptx@
                    token usdGen:map:filter = "bilinear"
                    uniform token usdGen:map:channel = "r"
                }
            }
        }
    }
}
