#usda 1.0
(
    defaultPrim = "World"
    metersPerUnit = 1
    upAxis = "Y"
    doc = "Guide-curve groom: strands grown between sparse guide curves, parted by a region field (a geoSampler voronoi over the guide roots, or a Ptex region map)."
)

# GUIDE-BASED GROOM (as opposed to scatter -> grow)
#
#   scatter -> interp -> frizz -> width
#
# `interp` is a UsdGenGuideInterpolate: every scattered root grows a strand by
# blending the shapes of its nearest guides (usdGen:maxGuides of them, weighted
# (1 - d / influenceRadius)^influenceDecay), each guide shape turned from the
# guide's root normal onto the strand's. /World/Guides is the sparse guide set
# (25 BasisCurves, a swirl with alternating lean). It is authored with purpose
# "guide": usdview draws it with Display > Guide.
#
# REGIONS
#   usdGen:region is a per-strand id. A guide only shapes strands of its own
#   region; its own region is the value at its root. The variant set `region`
#   on /World/Groom/Hair switches what drives it:
#
#   voronoi  (default) Expressions/voronoiRegion:
#                geoSampler("guideCurves", "$index")
#            geoSampler iterates the prims (curves) of the geometry its
#            input:guideCurves relationship names, and returns the element
#            expression "$index" at the one nearest the strand root: a voronoi
#            cell id seeded by the guide roots. Each guide owns its cell;
#            usdGen:regionCrossover = 0.3 lets neighbours soften the borders.
#   ptexMap  Expressions/mapRegion:  ptex("regionMap")
#            input:regionMap names Maps/regionMap, a UsdGenPtexMap whose file
#            (maps/guide_regions.ptx) splits the skin into five regions. Several
#            guides share a region, so strands interpolate inside it and part
#            hard at its border (crossover 0).
#   smooth   nothing connected: one region, plain interpolation.
#
# DIRTY PROPAGATION
#   Everything an expression samples is named by a relationship on the
#   expression prim, so it is tracked: edit a guide point (or retarget
#   input:guideCurves) and the regions and the strands recook.
#
# View it:   .\bin\launch_usdview.ps1 examples\guide-interpolate-plane.usda
# Record it: .\bin\record_usd.ps1 -Scene examples\guide-interpolate-plane.usda `
#                -Output out.png -Camera /World/Cam -Complexity veryhigh
# Regenerate: python examples\tools\make_examples.py, then
#             .\examples\tools\bake_maps.ps1

def Xform "World"
{
    def Camera "Cam"
    {
        uniform token[] xformOpOrder = ["xformOp:transform"]
        matrix4d xformOp:transform = ( (0.741874, 0, -0.67054, 0), (-0.282778, 0.906728, -0.312861, 0), (0.607997, 0.421717, 0.672677, 0), (2.35, 1.75, 2.6, 1) )
        float2 clippingRange = (0.05, 50)
        float focalLength = 35
        float horizontalAperture = 24
        float verticalAperture = 18
    }

    def Mesh "Skin" (
        prepend apiSchemas = ["UsdGenRestAPI"]
    )
    {
        uniform token subdivisionScheme = "none"
        int[] faceVertexCounts = [
            4, 4, 4, 4, 4, 4, 4, 4, 4, 4, 4, 4, 4, 4, 4, 4, 4, 4, 4, 4, 4, 4, 4, 4,
            4, 4, 4, 4, 4, 4, 4, 4, 4, 4, 4, 4, 4, 4, 4, 4, 4, 4, 4, 4, 4, 4, 4, 4,
            4, 4, 4, 4, 4, 4, 4, 4, 4, 4, 4, 4, 4, 4, 4, 4, 4, 4, 4, 4, 4, 4, 4, 4,
            4, 4, 4, 4, 4, 4, 4, 4, 4, 4, 4, 4, 4, 4, 4, 4, 4, 4, 4, 4, 4, 4, 4, 4,
            4, 4, 4, 4
        ]
        int[] faceVertexIndices = [
            0, 11, 12, 1, 1, 12, 13, 2, 2, 13, 14, 3, 3, 14, 15, 4, 4, 15, 16, 5,
            5, 16, 17, 6, 6, 17, 18, 7, 7, 18, 19, 8, 8, 19, 20, 9, 9, 20, 21, 10,
            11, 22, 23, 12, 12, 23, 24, 13, 13, 24, 25, 14, 14, 25, 26, 15, 15, 26, 27, 16,
            16, 27, 28, 17, 17, 28, 29, 18, 18, 29, 30, 19, 19, 30, 31, 20, 20, 31, 32, 21,
            22, 33, 34, 23, 23, 34, 35, 24, 24, 35, 36, 25, 25, 36, 37, 26, 26, 37, 38, 27,
            27, 38, 39, 28, 28, 39, 40, 29, 29, 40, 41, 30, 30, 41, 42, 31, 31, 42, 43, 32,
            33, 44, 45, 34, 34, 45, 46, 35, 35, 46, 47, 36, 36, 47, 48, 37, 37, 48, 49, 38,
            38, 49, 50, 39, 39, 50, 51, 40, 40, 51, 52, 41, 41, 52, 53, 42, 42, 53, 54, 43,
            44, 55, 56, 45, 45, 56, 57, 46, 46, 57, 58, 47, 47, 58, 59, 48, 48, 59, 60, 49,
            49, 60, 61, 50, 50, 61, 62, 51, 51, 62, 63, 52, 52, 63, 64, 53, 53, 64, 65, 54,
            55, 66, 67, 56, 56, 67, 68, 57, 57, 68, 69, 58, 58, 69, 70, 59, 59, 70, 71, 60,
            60, 71, 72, 61, 61, 72, 73, 62, 62, 73, 74, 63, 63, 74, 75, 64, 64, 75, 76, 65,
            66, 77, 78, 67, 67, 78, 79, 68, 68, 79, 80, 69, 69, 80, 81, 70, 70, 81, 82, 71,
            71, 82, 83, 72, 72, 83, 84, 73, 73, 84, 85, 74, 74, 85, 86, 75, 75, 86, 87, 76,
            77, 88, 89, 78, 78, 89, 90, 79, 79, 90, 91, 80, 80, 91, 92, 81, 81, 92, 93, 82,
            82, 93, 94, 83, 83, 94, 95, 84, 84, 95, 96, 85, 85, 96, 97, 86, 86, 97, 98, 87,
            88, 99, 100, 89, 89, 100, 101, 90, 90, 101, 102, 91, 91, 102, 103, 92, 92, 103, 104, 93,
            93, 104, 105, 94, 94, 105, 106, 95, 95, 106, 107, 96, 96, 107, 108, 97, 97, 108, 109, 98,
            99, 110, 111, 100, 100, 111, 112, 101, 101, 112, 113, 102, 102, 113, 114, 103, 103, 114, 115, 104,
            104, 115, 116, 105, 105, 116, 117, 106, 106, 117, 118, 107, 107, 118, 119, 108, 108, 119, 120, 109
        ]
        point3f[] points = [
            (-1, 0, -1), (-0.8, 0, -1), (-0.6, 0, -1), (-0.4, 0, -1), (-0.2, 0, -1), (0, 0, -1),
            (0.2, 0, -1), (0.4, 0, -1), (0.6, 0, -1), (0.8, 0, -1), (1, 0, -1), (-1, 0, -0.8),
            (-0.8, 0, -0.8), (-0.6, 0, -0.8), (-0.4, 0, -0.8), (-0.2, 0, -0.8), (0, 0, -0.8), (0.2, 0, -0.8),
            (0.4, 0, -0.8), (0.6, 0, -0.8), (0.8, 0, -0.8), (1, 0, -0.8), (-1, 0, -0.6), (-0.8, 0, -0.6),
            (-0.6, 0, -0.6), (-0.4, 0, -0.6), (-0.2, 0, -0.6), (0, 0, -0.6), (0.2, 0, -0.6), (0.4, 0, -0.6),
            (0.6, 0, -0.6), (0.8, 0, -0.6), (1, 0, -0.6), (-1, 0, -0.4), (-0.8, 0, -0.4), (-0.6, 0, -0.4),
            (-0.4, 0, -0.4), (-0.2, 0, -0.4), (0, 0, -0.4), (0.2, 0, -0.4), (0.4, 0, -0.4), (0.6, 0, -0.4),
            (0.8, 0, -0.4), (1, 0, -0.4), (-1, 0, -0.2), (-0.8, 0, -0.2), (-0.6, 0, -0.2), (-0.4, 0, -0.2),
            (-0.2, 0, -0.2), (0, 0, -0.2), (0.2, 0, -0.2), (0.4, 0, -0.2), (0.6, 0, -0.2), (0.8, 0, -0.2),
            (1, 0, -0.2), (-1, 0, 0), (-0.8, 0, 0), (-0.6, 0, 0), (-0.4, 0, 0), (-0.2, 0, 0),
            (0, 0, 0), (0.2, 0, 0), (0.4, 0, 0), (0.6, 0, 0), (0.8, 0, 0), (1, 0, 0),
            (-1, 0, 0.2), (-0.8, 0, 0.2), (-0.6, 0, 0.2), (-0.4, 0, 0.2), (-0.2, 0, 0.2), (0, 0, 0.2),
            (0.2, 0, 0.2), (0.4, 0, 0.2), (0.6, 0, 0.2), (0.8, 0, 0.2), (1, 0, 0.2), (-1, 0, 0.4),
            (-0.8, 0, 0.4), (-0.6, 0, 0.4), (-0.4, 0, 0.4), (-0.2, 0, 0.4), (0, 0, 0.4), (0.2, 0, 0.4),
            (0.4, 0, 0.4), (0.6, 0, 0.4), (0.8, 0, 0.4), (1, 0, 0.4), (-1, 0, 0.6), (-0.8, 0, 0.6),
            (-0.6, 0, 0.6), (-0.4, 0, 0.6), (-0.2, 0, 0.6), (0, 0, 0.6), (0.2, 0, 0.6), (0.4, 0, 0.6),
            (0.6, 0, 0.6), (0.8, 0, 0.6), (1, 0, 0.6), (-1, 0, 0.8), (-0.8, 0, 0.8), (-0.6, 0, 0.8),
            (-0.4, 0, 0.8), (-0.2, 0, 0.8), (0, 0, 0.8), (0.2, 0, 0.8), (0.4, 0, 0.8), (0.6, 0, 0.8),
            (0.8, 0, 0.8), (1, 0, 0.8), (-1, 0, 1), (-0.8, 0, 1), (-0.6, 0, 1), (-0.4, 0, 1),
            (-0.2, 0, 1), (0, 0, 1), (0.2, 0, 1), (0.4, 0, 1), (0.6, 0, 1), (0.8, 0, 1),
            (1, 0, 1)
        ]
        point3f[] primvars:rest = [
            (-1, 0, -1), (-0.8, 0, -1), (-0.6, 0, -1), (-0.4, 0, -1), (-0.2, 0, -1), (0, 0, -1),
            (0.2, 0, -1), (0.4, 0, -1), (0.6, 0, -1), (0.8, 0, -1), (1, 0, -1), (-1, 0, -0.8),
            (-0.8, 0, -0.8), (-0.6, 0, -0.8), (-0.4, 0, -0.8), (-0.2, 0, -0.8), (0, 0, -0.8), (0.2, 0, -0.8),
            (0.4, 0, -0.8), (0.6, 0, -0.8), (0.8, 0, -0.8), (1, 0, -0.8), (-1, 0, -0.6), (-0.8, 0, -0.6),
            (-0.6, 0, -0.6), (-0.4, 0, -0.6), (-0.2, 0, -0.6), (0, 0, -0.6), (0.2, 0, -0.6), (0.4, 0, -0.6),
            (0.6, 0, -0.6), (0.8, 0, -0.6), (1, 0, -0.6), (-1, 0, -0.4), (-0.8, 0, -0.4), (-0.6, 0, -0.4),
            (-0.4, 0, -0.4), (-0.2, 0, -0.4), (0, 0, -0.4), (0.2, 0, -0.4), (0.4, 0, -0.4), (0.6, 0, -0.4),
            (0.8, 0, -0.4), (1, 0, -0.4), (-1, 0, -0.2), (-0.8, 0, -0.2), (-0.6, 0, -0.2), (-0.4, 0, -0.2),
            (-0.2, 0, -0.2), (0, 0, -0.2), (0.2, 0, -0.2), (0.4, 0, -0.2), (0.6, 0, -0.2), (0.8, 0, -0.2),
            (1, 0, -0.2), (-1, 0, 0), (-0.8, 0, 0), (-0.6, 0, 0), (-0.4, 0, 0), (-0.2, 0, 0),
            (0, 0, 0), (0.2, 0, 0), (0.4, 0, 0), (0.6, 0, 0), (0.8, 0, 0), (1, 0, 0),
            (-1, 0, 0.2), (-0.8, 0, 0.2), (-0.6, 0, 0.2), (-0.4, 0, 0.2), (-0.2, 0, 0.2), (0, 0, 0.2),
            (0.2, 0, 0.2), (0.4, 0, 0.2), (0.6, 0, 0.2), (0.8, 0, 0.2), (1, 0, 0.2), (-1, 0, 0.4),
            (-0.8, 0, 0.4), (-0.6, 0, 0.4), (-0.4, 0, 0.4), (-0.2, 0, 0.4), (0, 0, 0.4), (0.2, 0, 0.4),
            (0.4, 0, 0.4), (0.6, 0, 0.4), (0.8, 0, 0.4), (1, 0, 0.4), (-1, 0, 0.6), (-0.8, 0, 0.6),
            (-0.6, 0, 0.6), (-0.4, 0, 0.6), (-0.2, 0, 0.6), (0, 0, 0.6), (0.2, 0, 0.6), (0.4, 0, 0.6),
            (0.6, 0, 0.6), (0.8, 0, 0.6), (1, 0, 0.6), (-1, 0, 0.8), (-0.8, 0, 0.8), (-0.6, 0, 0.8),
            (-0.4, 0, 0.8), (-0.2, 0, 0.8), (0, 0, 0.8), (0.2, 0, 0.8), (0.4, 0, 0.8), (0.6, 0, 0.8),
            (0.8, 0, 0.8), (1, 0, 0.8), (-1, 0, 1), (-0.8, 0, 1), (-0.6, 0, 1), (-0.4, 0, 1),
            (-0.2, 0, 1), (0, 0, 1), (0.2, 0, 1), (0.4, 0, 1), (0.6, 0, 1), (0.8, 0, 1),
            (1, 0, 1)
        ] (
            interpolation = "vertex"
        )
        texCoord2f[] primvars:st = [
            (0, 0), (0.1, 0), (0.2, 0), (0.3, 0), (0.4, 0), (0.5, 0), (0.6, 0), (0.7, 0),
            (0.8, 0), (0.9, 0), (1, 0), (0, 0.1), (0.1, 0.1), (0.2, 0.1), (0.3, 0.1), (0.4, 0.1),
            (0.5, 0.1), (0.6, 0.1), (0.7, 0.1), (0.8, 0.1), (0.9, 0.1), (1, 0.1), (0, 0.2), (0.1, 0.2),
            (0.2, 0.2), (0.3, 0.2), (0.4, 0.2), (0.5, 0.2), (0.6, 0.2), (0.7, 0.2), (0.8, 0.2), (0.9, 0.2),
            (1, 0.2), (0, 0.3), (0.1, 0.3), (0.2, 0.3), (0.3, 0.3), (0.4, 0.3), (0.5, 0.3), (0.6, 0.3),
            (0.7, 0.3), (0.8, 0.3), (0.9, 0.3), (1, 0.3), (0, 0.4), (0.1, 0.4), (0.2, 0.4), (0.3, 0.4),
            (0.4, 0.4), (0.5, 0.4), (0.6, 0.4), (0.7, 0.4), (0.8, 0.4), (0.9, 0.4), (1, 0.4), (0, 0.5),
            (0.1, 0.5), (0.2, 0.5), (0.3, 0.5), (0.4, 0.5), (0.5, 0.5), (0.6, 0.5), (0.7, 0.5), (0.8, 0.5),
            (0.9, 0.5), (1, 0.5), (0, 0.6), (0.1, 0.6), (0.2, 0.6), (0.3, 0.6), (0.4, 0.6), (0.5, 0.6),
            (0.6, 0.6), (0.7, 0.6), (0.8, 0.6), (0.9, 0.6), (1, 0.6), (0, 0.7), (0.1, 0.7), (0.2, 0.7),
            (0.3, 0.7), (0.4, 0.7), (0.5, 0.7), (0.6, 0.7), (0.7, 0.7), (0.8, 0.7), (0.9, 0.7), (1, 0.7),
            (0, 0.8), (0.1, 0.8), (0.2, 0.8), (0.3, 0.8), (0.4, 0.8), (0.5, 0.8), (0.6, 0.8), (0.7, 0.8),
            (0.8, 0.8), (0.9, 0.8), (1, 0.8), (0, 0.9), (0.1, 0.9), (0.2, 0.9), (0.3, 0.9), (0.4, 0.9),
            (0.5, 0.9), (0.6, 0.9), (0.7, 0.9), (0.8, 0.9), (0.9, 0.9), (1, 0.9), (0, 1), (0.1, 1),
            (0.2, 1), (0.3, 1), (0.4, 1), (0.5, 1), (0.6, 1), (0.7, 1), (0.8, 1), (0.9, 1),
            (1, 1)
        ] (
            interpolation = "vertex"
        )
        color3f[] primvars:displayColor = [(0.22, 0.2, 0.19)]
    }

    def BasisCurves "Guides" (
        prepend apiSchemas = ["UsdGenCurveAPI"]
    )
    {
        uniform token purpose = "guide"
        uniform token type = "cubic"
        uniform token basis = "bspline"
        uniform token wrap = "pinned"
        int[] curveVertexCounts = [
            8, 8, 8, 8, 8, 8, 8, 8, 8, 8, 8, 8, 8, 8, 8, 8, 8, 8, 8, 8, 8, 8, 8, 8, 8
        ]
        point3f[] points = [
            (-0.826466, 0, -0.826519), (-0.827484, 0.0497999, -0.831602), (-0.827435, 0.0981218, -0.843211), (-0.819323, 0.144966, -0.857568),
            (-0.8014, 0.190332, -0.873513), (-0.781399, 0.234219, -0.893764), (-0.770823, 0.276629, -0.922596), (-0.773681, 0.317561, -0.961403),
            (-0.406214, 0, -0.805947), (-0.412082, 0.0568426, -0.801971), (-0.426843, 0.111627, -0.795705), (-0.44971, 0.164353, -0.79749),
            (-0.480213, 0.21502, -0.81003), (-0.51737, 0.26363, -0.822684), (-0.560019, 0.310181, -0.819501), (-0.60763, 0.354674, -0.79497),
            (-0.0121024, 0, -0.81209), (-0.00846699, 0.0547458, -0.817485), (0.00195035, 0.107613, -0.827814), (0.0220025, 0.158602, -0.833846),
            (0.0522095, 0.207713, -0.833076), (0.0881137, 0.254945, -0.834413), (0.123295, 0.300299, -0.851312), (0.155426, 0.343775, -0.888378),
            (0.366607, 0, -0.833362), (0.362156, 0.0474296, -0.834489), (0.352934, 0.0935571, -0.838966), (0.344727, 0.138383, -0.850959),
            (0.339153, 0.181906, -0.871427), (0.330977, 0.224128, -0.895206), (0.312225, 0.265047, -0.914709), (0.280197, 0.304664, -0.92725),
            (0.795414, 0, -0.804486), (0.802559, 0.0573549, -0.805724), (0.818973, 0.112601, -0.805363), (0.839603, 0.165739, -0.79412),
            (0.862881, 0.216768, -0.769678), (0.892331, 0.265689, -0.742342), (0.933527, 0.312501, -0.727427), (0.988272, 0.357204, -0.730279),
            (-0.776044, 0, -0.375986), (-0.779774, 0.0670355, -0.366331), (-0.792189, 0.130985, -0.346057), (-0.820751, 0.191848, -0.327007),
            (-0.867096, 0.249626, -0.312521), (-0.921423, 0.304317, -0.292055), (-0.969407, 0.355922, -0.249524), (-1.00595, 0.404441, -0.179487),
            (-0.394654, 0, -0.394665), (-0.395903, 0.060685, -0.402875), (-0.39518, 0.118934, -0.421756), (-0.382167, 0.174747, -0.445558),
            (-0.354295, 0.228124, -0.47249), (-0.323056, 0.279066, -0.50654), (-0.305524, 0.327571, -0.554019), (-0.307662, 0.373641, -0.616969),
            (-0.00306545, 0, -0.40302), (-0.0104009, 0.0578483, -0.402047), (-0.0271364, 0.113542, -0.403068), (-0.0477771, 0.167081, -0.415325),
            (-0.0706371, 0.218466, -0.441109), (-0.0996901, 0.267696, -0.470084), (-0.141181, 0.314771, -0.486895), (-0.197149, 0.359692, -0.486178),
            (0.430346, 0, -0.369536), (0.441446, 0.0692062, -0.369938), (0.466777, 0.135083, -0.366326), (0.498043, 0.197632, -0.3465),
            (0.532698, 0.256851, -0.307477), (0.576733, 0.312741, -0.263186), (0.639567, 0.365302, -0.234272), (0.72427, 0.414535, -0.227966),
            (0.816042, 0, -0.384804), (0.811232, 0.0640403, -0.392882), (0.803817, 0.125299, -0.413059), (0.806746, 0.183776, -0.443879),
            (0.823396, 0.239472, -0.484602), (0.840391, 0.292386, -0.534309), (0.837685, 0.342519, -0.592038), (0.808351, 0.38987, -0.657286),
            (-0.817677, 0, -0.0176651), (-0.822536, 0.0528237, -0.0211411), (-0.831703, 0.103931, -0.0309622), (-0.836495, 0.153323, -0.0494893),
            (-0.83457, 0.200999, -0.0771305), (-0.834371, 0.246958, -0.110046), (-0.848639, 0.291202, -0.142724), (-0.88174, 0.333729, -0.173157),
            (-0.433321, 0, -0.0333521), (-0.43291, 0.04744, -0.028781), (-0.434079, 0.0935783, -0.0186008), (-0.442674, 0.138415, -0.00688834),
            (-0.460132, 0.18195, 0.00514708), (-0.479853, 0.224184, 0.0207341), (-0.492039, 0.265116, 0.0448783), (-0.493264, 0.304747, 0.0792401),
            (0.0181858, 0, 0.0180505), (0.019485, 0.0650242, 0.0276275), (0.0184077, 0.127181, 0.0497346), (0.00336752, 0.186471, 0.077874),
            (-0.0285142, 0.242894, 0.110009), (-0.0643008, 0.296449, 0.150548), (-0.0847753, 0.347138, 0.206491), (-0.0832263, 0.394959, 0.280094),
            (0.391347, 0, -0.00818976), (0.390296, 0.0560733, -0.0149918), (0.390945, 0.110152, -0.0305306), (0.402084, 0.162237, -0.0497646),
            (0.425901, 0.212327, -0.0711433), (0.452601, 0.260423, -0.0982899), (0.467635, 0.306525, -0.136904), (0.46592, 0.350633, -0.188844),
            (0.761228, 0, -0.0387837), (0.764804, 0.0455764, -0.036718), (0.771669, 0.0899852, -0.0305851), (0.775745, 0.133226, -0.0182039),
            (0.775384, 0.1753, 0.000857305), (0.77644, 0.216206, 0.0234199), (0.787759, 0.255944, 0.0448796), (0.812367, 0.294515, 0.0635792),
            (-0.823702, 0, 0.376324), (-0.820714, 0.0507646, 0.380852), (-0.816176, 0.099979, 0.392138), (-0.818316, 0.147643, 0.409299),
            (-0.829276, 0.193757, 0.431904), (-0.840535, 0.238321, 0.459515), (-0.839331, 0.281334, 0.491704), (-0.82125, 0.322797, 0.528229),
            (-0.415126, 0, 0.384996), (-0.421278, 0.0537373, 0.38589), (-0.435254, 0.105685, 0.385141), (-0.452299, 0.155842, 0.374759),
            (-0.470962, 0.204209, 0.352759), (-0.494747, 0.250787, 0.328063), (-0.529148, 0.295574, 0.313924), (-0.575962, 0.338572, 0.314972),
            (0.0331732, 0, 0.433382), (0.0445104, 0.0702053, 0.431731), (0.0709255, 0.136969, 0.432574), (0.10537, 0.20029, 0.449256),
            (0.145589, 0.26017, 0.485099), (0.19606, 0.316608, 0.525254), (0.263972, 0.369604, 0.547655), (0.351609, 0.419159, 0.544598),
            (0.374213, 0, 0.374205), (0.375237, 0.0500387, 0.379339), (0.375179, 0.098584, 0.391066), (0.366987, 0.145636, 0.405575),
            (0.348899, 0.191194, 0.421696), (0.328712, 0.235259, 0.442168), (0.318025, 0.277831, 0.471301), (0.320882, 0.318909, 0.5105),
            (0.765076, 0, 0.365044), (0.766296, 0.0468881, 0.360754), (0.770905, 0.0925126, 0.351933), (0.782788, 0.136874, 0.344336),
            (0.802829, 0.179971, 0.339565), (0.826161, 0.221805, 0.332369), (0.845637, 0.262375, 0.314761), (0.858724, 0.301682, 0.284029),
            (-0.809566, 0, 0.790533), (-0.816234, 0.0556385, 0.791619), (-0.831482, 0.109321, 0.7911), (-0.850413, 0.161048, 0.780292),
            (-0.871515, 0.210819, 0.757032), (-0.898291, 0.258635, 0.730981), (-0.936256, 0.304495, 0.716491), (-0.987206, 0.348399, 0.718574),
            (-0.424201, 0, 0.775798), (-0.419135, 0.0505828, 0.777617), (-0.408824, 0.0996281, 0.783884), (-0.400337, 0.147136, 0.79879),
            (-0.395636, 0.193106, 0.823266), (-0.388201, 0.237539, 0.851897), (-0.368131, 0.280434, 0.876752), (-0.332058, 0.321792, 0.895013),
            (0.00729273, 0, 0.807286), (0.00231673, 0.0613567, 0.814125), (-0.0117346, 0.120227, 0.827309), (-0.0382207, 0.176611, 0.835362),
            (-0.0777207, 0.23051, 0.835169), (-0.124762, 0.281921, 0.837757), (-0.171487, 0.330847, 0.859786), (-0.215037, 0.377286, 0.906958),
            (0.420428, 0, 0.820396), (0.428838, 0.0658102, 0.815106), (0.45, 0.128667, 0.806677), (0.482806, 0.18857, 0.808626),
            (0.526582, 0.24552, 0.824494), (0.579904, 0.299516, 0.8404), (0.641076, 0.350559, 0.835532), (0.70933, 0.398648, 0.802703),
            (0.792467, 0, 0.792356), (0.79365, 0.0562665, 0.799197), (0.79328, 0.110521, 0.814883), (0.782406, 0.162762, 0.834499),
            (0.758796, 0.212992, 0.856521), (0.732386, 0.261209, 0.884417), (0.717941, 0.307413, 0.923657), (0.720615, 0.351606, 0.976015)
        ]
        float[] widths = [
            0.008, 0.0072, 0.0064, 0.0056, 0.0048, 0.004, 0.0032, 0.0024,
            0.008, 0.0072, 0.0064, 0.0056, 0.0048, 0.004, 0.0032, 0.0024,
            0.008, 0.0072, 0.0064, 0.0056, 0.0048, 0.004, 0.0032, 0.0024,
            0.008, 0.0072, 0.0064, 0.0056, 0.0048, 0.004, 0.0032, 0.0024,
            0.008, 0.0072, 0.0064, 0.0056, 0.0048, 0.004, 0.0032, 0.0024,
            0.008, 0.0072, 0.0064, 0.0056, 0.0048, 0.004, 0.0032, 0.0024,
            0.008, 0.0072, 0.0064, 0.0056, 0.0048, 0.004, 0.0032, 0.0024,
            0.008, 0.0072, 0.0064, 0.0056, 0.0048, 0.004, 0.0032, 0.0024,
            0.008, 0.0072, 0.0064, 0.0056, 0.0048, 0.004, 0.0032, 0.0024,
            0.008, 0.0072, 0.0064, 0.0056, 0.0048, 0.004, 0.0032, 0.0024,
            0.008, 0.0072, 0.0064, 0.0056, 0.0048, 0.004, 0.0032, 0.0024,
            0.008, 0.0072, 0.0064, 0.0056, 0.0048, 0.004, 0.0032, 0.0024,
            0.008, 0.0072, 0.0064, 0.0056, 0.0048, 0.004, 0.0032, 0.0024,
            0.008, 0.0072, 0.0064, 0.0056, 0.0048, 0.004, 0.0032, 0.0024,
            0.008, 0.0072, 0.0064, 0.0056, 0.0048, 0.004, 0.0032, 0.0024,
            0.008, 0.0072, 0.0064, 0.0056, 0.0048, 0.004, 0.0032, 0.0024,
            0.008, 0.0072, 0.0064, 0.0056, 0.0048, 0.004, 0.0032, 0.0024,
            0.008, 0.0072, 0.0064, 0.0056, 0.0048, 0.004, 0.0032, 0.0024,
            0.008, 0.0072, 0.0064, 0.0056, 0.0048, 0.004, 0.0032, 0.0024,
            0.008, 0.0072, 0.0064, 0.0056, 0.0048, 0.004, 0.0032, 0.0024,
            0.008, 0.0072, 0.0064, 0.0056, 0.0048, 0.004, 0.0032, 0.0024,
            0.008, 0.0072, 0.0064, 0.0056, 0.0048, 0.004, 0.0032, 0.0024,
            0.008, 0.0072, 0.0064, 0.0056, 0.0048, 0.004, 0.0032, 0.0024,
            0.008, 0.0072, 0.0064, 0.0056, 0.0048, 0.004, 0.0032, 0.0024,
            0.008, 0.0072, 0.0064, 0.0056, 0.0048, 0.004, 0.0032, 0.0024
        ] (
            interpolation = "vertex"
        )
        uint64[] primvars:usdGen:curveId = [
            1000, 1001, 1002, 1003, 1004, 1005, 1006, 1007, 1008, 1009, 1010, 1011, 1012, 1013, 1014, 1015, 1016, 1017, 1018, 1019, 1020, 1021, 1022, 1023, 1024
        ] (
            interpolation = "uniform"
        )
        color3f[] primvars:displayColor = [(0.95, 0.35, 0.1)]
    }

    def Xform "Groom"
    {
        def UsdGenDescription "Hair" (
            prepend variantSets = "region"
            variants = {
                string region = "voronoi"
            }
        )
        {
            rel usdGen:surface = </World/Skin>
            uniform token usdGen:curve:basis = "bspline"
            float usdGen:width:default = 0.004

            def Scope "Ops"
            {
                def UsdGenWidth "width"
                {
                    float usdGen:width = 0.0055
                    float2[] usdGen:width:knots = [(0, 1), (0.7, 0.75), (1, 0.15)]
                    bool usdGen:replace = true
                }

                def UsdGenNoise "frizz"
                {
                    int usdGen:seed = 3
                    float usdGen:noise:magnitude = 0.012
                    float2[] usdGen:noise:magnitude:knots = [(0, 0), (1, 1)]
                    float usdGen:noise:frequency = 6
                    int usdGen:noise:octaves = 2
                    float usdGen:preserveLength = 1
                }

                def UsdGenGuideInterpolate "interp"
                {
                    int usdGen:seed = 11
                    rel usdGen:guides = </World/Guides>
                    int usdGen:cvCount = 12
                    int usdGen:maxGuides = 3
                    float usdGen:influenceRadius = 0.75
                    float usdGen:influenceDecay = 1.5
                    uniform token usdGen:blendMethod = "extrudeAndBlend"
                    float usdGen:blendInSkinSpace = 1
                    float usdGen:randomizeGuide = 0.15
                    float usdGen:region = 0
                    float usdGen:regionCrossover = 0
                }

                def UsdGenScatter "scatter"
                {
                    int usdGen:seed = 5
                    float usdGen:density = 3500
                }
            }

            def Scope "Expressions"
            {
                # A voronoi over the guide roots. input:guideCurves is what
                # geoSampler("guideCurves", ...) reads; "$index" is evaluated
                # at the nearest prim (curve root) of that geometry.
                def UsdGenExpression "voronoiRegion"
                {
                    string usdGen:expr:source = """geoSampler("guideCurves", "$index")"""
                    rel input:guideCurves = </World/Guides>
                    custom float outputs:result
                }

                # A painted (here: baked) region map, read at the strand root.
                def UsdGenExpression "mapRegion"
                {
                    string usdGen:expr:source = """ptex("regionMap")"""
                    rel input:regionMap = </World/Groom/Hair/Maps/regionMap>
                    custom float outputs:result
                }
            }

            def Scope "Maps"
            {
                def UsdGenPtexMap "regionMap"
                {
                    asset usdGen:map:file = @./maps/guide_regions.ptx@
                    token usdGen:map:filter = "nearest"
                    uniform token usdGen:map:channel = "r"
                    float2 usdGen:map:clamp = (0, 0)
                }
            }

            variantSet "region" = {
                "voronoi" {
                    over "Ops"
                    {
                        over "interp"
                        {
                            float usdGen:region.connect = </World/Groom/Hair/Expressions/voronoiRegion>
                            float usdGen:regionCrossover = 0.3
                        }
                    }
                }
                "ptexMap" {
                    over "Ops"
                    {
                        over "interp"
                        {
                            float usdGen:region.connect = </World/Groom/Hair/Expressions/mapRegion>
                            int usdGen:maxGuides = 4
                            float usdGen:regionCrossover = 0
                        }
                    }
                }
                "smooth" {
                }
            }
        }
    }
}
