#usda 1.0
(
    defaultPrim = "World"
    subLayers = [
        @./head-hair-closeup.usda@
    ]
)

over "World"
{
    def Mesh "Backdrop" (
        prepend apiSchemas = ["MaterialBindingAPI"]
    )
    {
        uniform token orientation = "leftHanded"
        uniform token subdivisionScheme = "none"
        float3[] extent = [
            (-260, -260, -260), (260, 260, 260)
        ]
        int[] faceVertexCounts = [
            3, 3, 3, 3, 3, 3, 3, 3, 3, 3, 3, 3, 3, 3, 3, 3,
            4, 4, 4, 4, 4, 4, 4, 4, 4, 4, 4, 4, 4, 4, 4, 4,
            4, 4, 4, 4, 4, 4, 4, 4, 4, 4, 4, 4, 4, 4, 4, 4,
            4, 4, 4, 4, 4, 4, 4, 4, 4, 4, 4, 4, 4, 4, 4, 4,
            4, 4, 4, 4, 4, 4, 4, 4, 4, 4, 4, 4, 4, 4, 4, 4,
            4, 4, 4, 4, 4, 4, 4, 4, 4, 4, 4, 4, 4, 4, 4, 4,
            4, 4, 4, 4, 4, 4, 4, 4, 4, 4, 4, 4, 4, 4, 4, 4,
            4, 4, 4, 4, 4, 4, 4, 4, 4, 4, 4, 4, 4, 4, 4, 4,
            4, 4, 4, 4, 4, 4, 4, 4, 4, 4, 4, 4, 4, 4, 4, 4,
            4, 4, 4, 4, 4, 4, 4, 4, 4, 4, 4, 4, 4, 4, 4, 4,
            4, 4, 4, 4, 4, 4, 4, 4, 4, 4, 4, 4, 4, 4, 4, 4,
            3, 3, 3, 3, 3, 3, 3, 3, 3, 3, 3, 3, 3, 3, 3, 3
        ]
        int[] faceVertexIndices = [
            0, 2, 1, 0, 3, 2, 0, 4, 3, 0, 5, 4, 0, 6, 5, 0,
            7, 6, 0, 8, 7, 0, 9, 8, 0, 10, 9, 0, 11, 10, 0, 12,
            11, 0, 13, 12, 0, 14, 13, 0, 15, 14, 0, 16, 15, 0, 1, 16,
            1, 2, 18, 17, 2, 3, 19, 18, 3, 4, 20, 19, 4, 5, 21, 20,
            5, 6, 22, 21, 6, 7, 23, 22, 7, 8, 24, 23, 8, 9, 25, 24,
            9, 10, 26, 25, 10, 11, 27, 26, 11, 12, 28, 27, 12, 13, 29, 28,
            13, 14, 30, 29, 14, 15, 31, 30, 15, 16, 32, 31, 16, 1, 17, 32,
            17, 18, 34, 33, 18, 19, 35, 34, 19, 20, 36, 35, 20, 21, 37, 36,
            21, 22, 38, 37, 22, 23, 39, 38, 23, 24, 40, 39, 24, 25, 41, 40,
            25, 26, 42, 41, 26, 27, 43, 42, 27, 28, 44, 43, 28, 29, 45, 44,
            29, 30, 46, 45, 30, 31, 47, 46, 31, 32, 48, 47, 32, 17, 33, 48,
            33, 34, 50, 49, 34, 35, 51, 50, 35, 36, 52, 51, 36, 37, 53, 52,
            37, 38, 54, 53, 38, 39, 55, 54, 39, 40, 56, 55, 40, 41, 57, 56,
            41, 42, 58, 57, 42, 43, 59, 58, 43, 44, 60, 59, 44, 45, 61, 60,
            45, 46, 62, 61, 46, 47, 63, 62, 47, 48, 64, 63, 48, 33, 49, 64,
            49, 50, 66, 65, 50, 51, 67, 66, 51, 52, 68, 67, 52, 53, 69, 68,
            53, 54, 70, 69, 54, 55, 71, 70, 55, 56, 72, 71, 56, 57, 73, 72,
            57, 58, 74, 73, 58, 59, 75, 74, 59, 60, 76, 75, 60, 61, 77, 76,
            61, 62, 78, 77, 62, 63, 79, 78, 63, 64, 80, 79, 64, 49, 65, 80,
            65, 66, 82, 81, 66, 67, 83, 82, 67, 68, 84, 83, 68, 69, 85, 84,
            69, 70, 86, 85, 70, 71, 87, 86, 71, 72, 88, 87, 72, 73, 89, 88,
            73, 74, 90, 89, 74, 75, 91, 90, 75, 76, 92, 91, 76, 77, 93, 92,
            77, 78, 94, 93, 78, 79, 95, 94, 79, 80, 96, 95, 80, 65, 81, 96,
            81, 82, 98, 97, 82, 83, 99, 98, 83, 84, 100, 99, 84, 85, 101, 100,
            85, 86, 102, 101, 86, 87, 103, 102, 87, 88, 104, 103, 88, 89, 105, 104,
            89, 90, 106, 105, 90, 91, 107, 106, 91, 92, 108, 107, 92, 93, 109, 108,
            93, 94, 110, 109, 94, 95, 111, 110, 95, 96, 112, 111, 96, 81, 97, 112,
            97, 98, 114, 113, 98, 99, 115, 114, 99, 100, 116, 115, 100, 101, 117, 116,
            101, 102, 118, 117, 102, 103, 119, 118, 103, 104, 120, 119, 104, 105, 121, 120,
            105, 106, 122, 121, 106, 107, 123, 122, 107, 108, 124, 123, 108, 109, 125, 124,
            109, 110, 126, 125, 110, 111, 127, 126, 111, 112, 128, 127, 112, 97, 113, 128,
            113, 114, 130, 129, 114, 115, 131, 130, 115, 116, 132, 131, 116, 117, 133, 132,
            117, 118, 134, 133, 118, 119, 135, 134, 119, 120, 136, 135, 120, 121, 137, 136,
            121, 122, 138, 137, 122, 123, 139, 138, 123, 124, 140, 139, 124, 125, 141, 140,
            125, 126, 142, 141, 126, 127, 143, 142, 127, 128, 144, 143, 128, 113, 129, 144,
            129, 130, 146, 145, 130, 131, 147, 146, 131, 132, 148, 147, 132, 133, 149, 148,
            133, 134, 150, 149, 134, 135, 151, 150, 135, 136, 152, 151, 136, 137, 153, 152,
            137, 138, 154, 153, 138, 139, 155, 154, 139, 140, 156, 155, 140, 141, 157, 156,
            141, 142, 158, 157, 142, 143, 159, 158, 143, 144, 160, 159, 144, 129, 145, 160,
            145, 146, 162, 161, 146, 147, 163, 162, 147, 148, 164, 163, 148, 149, 165, 164,
            149, 150, 166, 165, 150, 151, 167, 166, 151, 152, 168, 167, 152, 153, 169, 168,
            153, 154, 170, 169, 154, 155, 171, 170, 155, 156, 172, 171, 156, 157, 173, 172,
            157, 158, 174, 173, 158, 159, 175, 174, 159, 160, 176, 175, 160, 145, 161, 176,
            177, 161, 162, 177, 162, 163, 177, 163, 164, 177, 164, 165, 177, 165, 166, 177,
            166, 167, 177, 167, 168, 177, 168, 169, 177, 169, 170, 177, 170, 171, 177, 171,
            172, 177, 172, 173, 177, 173, 174, 177, 174, 175, 177, 175, 176, 177, 176, 161
        ]
        point3f[] points = [
            (0, 260, 0), (67.293, 251.141, 0), (62.1706, 251.141, 25.7519), (47.5833, 251.141, 47.5833),
            (25.7519, 251.141, 62.1706), (4.1205e-15, 251.141, 67.293), (-25.7519, 251.141, 62.1706), (-47.5833, 251.141, 47.5833),
            (-62.1706, 251.141, 25.7519), (-67.293, 251.141, 8.24101e-15), (-62.1706, 251.141, -25.7519), (-47.5833, 251.141, -47.5833),
            (-25.7519, 251.141, -62.1706), (-1.23615e-14, 251.141, -67.293), (25.7519, 251.141, -62.1706), (47.5833, 251.141, -47.5833),
            (62.1706, 251.141, -25.7519), (130, 225.167, 0), (120.104, 225.167, 49.7488), (91.9239, 225.167, 91.9239),
            (49.7488, 225.167, 120.104), (7.9602e-15, 225.167, 130), (-49.7488, 225.167, 120.104), (-91.9239, 225.167, 91.9239),
            (-120.104, 225.167, 49.7488), (-130, 225.167, 1.59204e-14), (-120.104, 225.167, -49.7488), (-91.9239, 225.167, -91.9239),
            (-49.7488, 225.167, -120.104), (-2.38806e-14, 225.167, -130), (49.7488, 225.167, -120.104), (91.9239, 225.167, -91.9239),
            (120.104, 225.167, -49.7488), (183.848, 183.848, 0), (169.853, 183.848, 70.3555), (130, 183.848, 130),
            (70.3555, 183.848, 169.853), (1.12574e-14, 183.848, 183.848), (-70.3555, 183.848, 169.853), (-130, 183.848, 130),
            (-169.853, 183.848, 70.3555), (-183.848, 183.848, 2.25149e-14), (-169.853, 183.848, -70.3555), (-130, 183.848, -130),
            (-70.3555, 183.848, -169.853), (-3.37723e-14, 183.848, -183.848), (70.3555, 183.848, -169.853), (130, 183.848, -130),
            (169.853, 183.848, -70.3555), (225.167, 130, 0), (208.027, 130, 86.1675), (159.217, 130, 159.217),
            (86.1675, 130, 208.027), (1.37875e-14, 130, 225.167), (-86.1675, 130, 208.027), (-159.217, 130, 159.217),
            (-208.027, 130, 86.1675), (-225.167, 130, 2.7575e-14), (-208.027, 130, -86.1675), (-159.217, 130, -159.217),
            (-86.1675, 130, -208.027), (-4.13624e-14, 130, -225.167), (86.1675, 130, -208.027), (159.217, 130, -159.217),
            (208.027, 130, -86.1675), (251.141, 67.293, 0), (232.024, 67.293, 96.1074), (177.583, 67.293, 177.583),
            (96.1074, 67.293, 232.024), (1.53779e-14, 67.293, 251.141), (-96.1074, 67.293, 232.024), (-177.583, 67.293, 177.583),
            (-232.024, 67.293, 96.1074), (-251.141, 67.293, 3.07559e-14), (-232.024, 67.293, -96.1074), (-177.583, 67.293, -177.583),
            (-96.1074, 67.293, -232.024), (-4.61338e-14, 67.293, -251.141), (96.1074, 67.293, -232.024), (177.583, 67.293, -177.583),
            (232.024, 67.293, -96.1074), (260, 1.59204e-14, 0), (240.209, 1.59204e-14, 99.4977), (183.848, 1.59204e-14, 183.848),
            (99.4977, 1.59204e-14, 240.209), (1.59204e-14, 1.59204e-14, 260), (-99.4977, 1.59204e-14, 240.209), (-183.848, 1.59204e-14, 183.848),
            (-240.209, 1.59204e-14, 99.4977), (-260, 1.59204e-14, 3.18408e-14), (-240.209, 1.59204e-14, -99.4977), (-183.848, 1.59204e-14, -183.848),
            (-99.4977, 1.59204e-14, -240.209), (-4.77612e-14, 1.59204e-14, -260), (99.4977, 1.59204e-14, -240.209), (183.848, 1.59204e-14, -183.848),
            (240.209, 1.59204e-14, -99.4977), (251.141, -67.293, 0), (232.024, -67.293, 96.1074), (177.583, -67.293, 177.583),
            (96.1074, -67.293, 232.024), (1.53779e-14, -67.293, 251.141), (-96.1074, -67.293, 232.024), (-177.583, -67.293, 177.583),
            (-232.024, -67.293, 96.1074), (-251.141, -67.293, 3.07559e-14), (-232.024, -67.293, -96.1074), (-177.583, -67.293, -177.583),
            (-96.1074, -67.293, -232.024), (-4.61338e-14, -67.293, -251.141), (96.1074, -67.293, -232.024), (177.583, -67.293, -177.583),
            (232.024, -67.293, -96.1074), (225.167, -130, 0), (208.027, -130, 86.1675), (159.217, -130, 159.217),
            (86.1675, -130, 208.027), (1.37875e-14, -130, 225.167), (-86.1675, -130, 208.027), (-159.217, -130, 159.217),
            (-208.027, -130, 86.1675), (-225.167, -130, 2.7575e-14), (-208.027, -130, -86.1675), (-159.217, -130, -159.217),
            (-86.1675, -130, -208.027), (-4.13624e-14, -130, -225.167), (86.1675, -130, -208.027), (159.217, -130, -159.217),
            (208.027, -130, -86.1675), (183.848, -183.848, 0), (169.853, -183.848, 70.3555), (130, -183.848, 130),
            (70.3555, -183.848, 169.853), (1.12574e-14, -183.848, 183.848), (-70.3555, -183.848, 169.853), (-130, -183.848, 130),
            (-169.853, -183.848, 70.3555), (-183.848, -183.848, 2.25149e-14), (-169.853, -183.848, -70.3555), (-130, -183.848, -130),
            (-70.3555, -183.848, -169.853), (-3.37723e-14, -183.848, -183.848), (70.3555, -183.848, -169.853), (130, -183.848, -130),
            (169.853, -183.848, -70.3555), (130, -225.167, 0), (120.104, -225.167, 49.7488), (91.9239, -225.167, 91.9239),
            (49.7488, -225.167, 120.104), (7.9602e-15, -225.167, 130), (-49.7488, -225.167, 120.104), (-91.9239, -225.167, 91.9239),
            (-120.104, -225.167, 49.7488), (-130, -225.167, 1.59204e-14), (-120.104, -225.167, -49.7488), (-91.9239, -225.167, -91.9239),
            (-49.7488, -225.167, -120.104), (-2.38806e-14, -225.167, -130), (49.7488, -225.167, -120.104), (91.9239, -225.167, -91.9239),
            (120.104, -225.167, -49.7488), (67.293, -251.141, 0), (62.1706, -251.141, 25.7519), (47.5833, -251.141, 47.5833),
            (25.7519, -251.141, 62.1706), (4.1205e-15, -251.141, 67.293), (-25.7519, -251.141, 62.1706), (-47.5833, -251.141, 47.5833),
            (-62.1706, -251.141, 25.7519), (-67.293, -251.141, 8.24101e-15), (-62.1706, -251.141, -25.7519), (-47.5833, -251.141, -47.5833),
            (-25.7519, -251.141, -62.1706), (-1.23615e-14, -251.141, -67.293), (25.7519, -251.141, -62.1706), (47.5833, -251.141, -47.5833),
            (62.1706, -251.141, -25.7519), (0, -260, 0)
        ]
        point3f[] primvars:rest = [
            (0, 260, 0), (67.293, 251.141, 0), (62.1706, 251.141, 25.7519), (47.5833, 251.141, 47.5833),
            (25.7519, 251.141, 62.1706), (4.1205e-15, 251.141, 67.293), (-25.7519, 251.141, 62.1706), (-47.5833, 251.141, 47.5833),
            (-62.1706, 251.141, 25.7519), (-67.293, 251.141, 8.24101e-15), (-62.1706, 251.141, -25.7519), (-47.5833, 251.141, -47.5833),
            (-25.7519, 251.141, -62.1706), (-1.23615e-14, 251.141, -67.293), (25.7519, 251.141, -62.1706), (47.5833, 251.141, -47.5833),
            (62.1706, 251.141, -25.7519), (130, 225.167, 0), (120.104, 225.167, 49.7488), (91.9239, 225.167, 91.9239),
            (49.7488, 225.167, 120.104), (7.9602e-15, 225.167, 130), (-49.7488, 225.167, 120.104), (-91.9239, 225.167, 91.9239),
            (-120.104, 225.167, 49.7488), (-130, 225.167, 1.59204e-14), (-120.104, 225.167, -49.7488), (-91.9239, 225.167, -91.9239),
            (-49.7488, 225.167, -120.104), (-2.38806e-14, 225.167, -130), (49.7488, 225.167, -120.104), (91.9239, 225.167, -91.9239),
            (120.104, 225.167, -49.7488), (183.848, 183.848, 0), (169.853, 183.848, 70.3555), (130, 183.848, 130),
            (70.3555, 183.848, 169.853), (1.12574e-14, 183.848, 183.848), (-70.3555, 183.848, 169.853), (-130, 183.848, 130),
            (-169.853, 183.848, 70.3555), (-183.848, 183.848, 2.25149e-14), (-169.853, 183.848, -70.3555), (-130, 183.848, -130),
            (-70.3555, 183.848, -169.853), (-3.37723e-14, 183.848, -183.848), (70.3555, 183.848, -169.853), (130, 183.848, -130),
            (169.853, 183.848, -70.3555), (225.167, 130, 0), (208.027, 130, 86.1675), (159.217, 130, 159.217),
            (86.1675, 130, 208.027), (1.37875e-14, 130, 225.167), (-86.1675, 130, 208.027), (-159.217, 130, 159.217),
            (-208.027, 130, 86.1675), (-225.167, 130, 2.7575e-14), (-208.027, 130, -86.1675), (-159.217, 130, -159.217),
            (-86.1675, 130, -208.027), (-4.13624e-14, 130, -225.167), (86.1675, 130, -208.027), (159.217, 130, -159.217),
            (208.027, 130, -86.1675), (251.141, 67.293, 0), (232.024, 67.293, 96.1074), (177.583, 67.293, 177.583),
            (96.1074, 67.293, 232.024), (1.53779e-14, 67.293, 251.141), (-96.1074, 67.293, 232.024), (-177.583, 67.293, 177.583),
            (-232.024, 67.293, 96.1074), (-251.141, 67.293, 3.07559e-14), (-232.024, 67.293, -96.1074), (-177.583, 67.293, -177.583),
            (-96.1074, 67.293, -232.024), (-4.61338e-14, 67.293, -251.141), (96.1074, 67.293, -232.024), (177.583, 67.293, -177.583),
            (232.024, 67.293, -96.1074), (260, 1.59204e-14, 0), (240.209, 1.59204e-14, 99.4977), (183.848, 1.59204e-14, 183.848),
            (99.4977, 1.59204e-14, 240.209), (1.59204e-14, 1.59204e-14, 260), (-99.4977, 1.59204e-14, 240.209), (-183.848, 1.59204e-14, 183.848),
            (-240.209, 1.59204e-14, 99.4977), (-260, 1.59204e-14, 3.18408e-14), (-240.209, 1.59204e-14, -99.4977), (-183.848, 1.59204e-14, -183.848),
            (-99.4977, 1.59204e-14, -240.209), (-4.77612e-14, 1.59204e-14, -260), (99.4977, 1.59204e-14, -240.209), (183.848, 1.59204e-14, -183.848),
            (240.209, 1.59204e-14, -99.4977), (251.141, -67.293, 0), (232.024, -67.293, 96.1074), (177.583, -67.293, 177.583),
            (96.1074, -67.293, 232.024), (1.53779e-14, -67.293, 251.141), (-96.1074, -67.293, 232.024), (-177.583, -67.293, 177.583),
            (-232.024, -67.293, 96.1074), (-251.141, -67.293, 3.07559e-14), (-232.024, -67.293, -96.1074), (-177.583, -67.293, -177.583),
            (-96.1074, -67.293, -232.024), (-4.61338e-14, -67.293, -251.141), (96.1074, -67.293, -232.024), (177.583, -67.293, -177.583),
            (232.024, -67.293, -96.1074), (225.167, -130, 0), (208.027, -130, 86.1675), (159.217, -130, 159.217),
            (86.1675, -130, 208.027), (1.37875e-14, -130, 225.167), (-86.1675, -130, 208.027), (-159.217, -130, 159.217),
            (-208.027, -130, 86.1675), (-225.167, -130, 2.7575e-14), (-208.027, -130, -86.1675), (-159.217, -130, -159.217),
            (-86.1675, -130, -208.027), (-4.13624e-14, -130, -225.167), (86.1675, -130, -208.027), (159.217, -130, -159.217),
            (208.027, -130, -86.1675), (183.848, -183.848, 0), (169.853, -183.848, 70.3555), (130, -183.848, 130),
            (70.3555, -183.848, 169.853), (1.12574e-14, -183.848, 183.848), (-70.3555, -183.848, 169.853), (-130, -183.848, 130),
            (-169.853, -183.848, 70.3555), (-183.848, -183.848, 2.25149e-14), (-169.853, -183.848, -70.3555), (-130, -183.848, -130),
            (-70.3555, -183.848, -169.853), (-3.37723e-14, -183.848, -183.848), (70.3555, -183.848, -169.853), (130, -183.848, -130),
            (169.853, -183.848, -70.3555), (130, -225.167, 0), (120.104, -225.167, 49.7488), (91.9239, -225.167, 91.9239),
            (49.7488, -225.167, 120.104), (7.9602e-15, -225.167, 130), (-49.7488, -225.167, 120.104), (-91.9239, -225.167, 91.9239),
            (-120.104, -225.167, 49.7488), (-130, -225.167, 1.59204e-14), (-120.104, -225.167, -49.7488), (-91.9239, -225.167, -91.9239),
            (-49.7488, -225.167, -120.104), (-2.38806e-14, -225.167, -130), (49.7488, -225.167, -120.104), (91.9239, -225.167, -91.9239),
            (120.104, -225.167, -49.7488), (67.293, -251.141, 0), (62.1706, -251.141, 25.7519), (47.5833, -251.141, 47.5833),
            (25.7519, -251.141, 62.1706), (4.1205e-15, -251.141, 67.293), (-25.7519, -251.141, 62.1706), (-47.5833, -251.141, 47.5833),
            (-62.1706, -251.141, 25.7519), (-67.293, -251.141, 8.24101e-15), (-62.1706, -251.141, -25.7519), (-47.5833, -251.141, -47.5833),
            (-25.7519, -251.141, -62.1706), (-1.23615e-14, -251.141, -67.293), (25.7519, -251.141, -62.1706), (47.5833, -251.141, -47.5833),
            (62.1706, -251.141, -25.7519), (0, -260, 0)
        ] (
            interpolation = "vertex"
        )
        normal3f[] normals = [
            (0, 1, 0), (0.258819, 0.965926, 0), (0.239118, 0.965926, 0.0990458), (0.183013, 0.965926, 0.183013),
            (0.0990458, 0.965926, 0.239118), (1.58481e-17, 0.965926, 0.258819), (-0.0990458, 0.965926, 0.239118), (-0.183013, 0.965926, 0.183013),
            (-0.239118, 0.965926, 0.0990458), (-0.258819, 0.965926, 3.16962e-17), (-0.239118, 0.965926, -0.0990458), (-0.183013, 0.965926, -0.183013),
            (-0.0990458, 0.965926, -0.239118), (-4.75443e-17, 0.965926, -0.258819), (0.0990458, 0.965926, -0.239118), (0.183013, 0.965926, -0.183013),
            (0.239118, 0.965926, -0.0990458), (0.5, 0.866025, 0), (0.46194, 0.866025, 0.191342), (0.353553, 0.866025, 0.353553),
            (0.191342, 0.866025, 0.46194), (3.06162e-17, 0.866025, 0.5), (-0.191342, 0.866025, 0.46194), (-0.353553, 0.866025, 0.353553),
            (-0.46194, 0.866025, 0.191342), (-0.5, 0.866025, 6.12323e-17), (-0.46194, 0.866025, -0.191342), (-0.353553, 0.866025, -0.353553),
            (-0.191342, 0.866025, -0.46194), (-9.18485e-17, 0.866025, -0.5), (0.191342, 0.866025, -0.46194), (0.353553, 0.866025, -0.353553),
            (0.46194, 0.866025, -0.191342), (0.707107, 0.707107, 0), (0.653281, 0.707107, 0.270598), (0.5, 0.707107, 0.5),
            (0.270598, 0.707107, 0.653281), (4.32978e-17, 0.707107, 0.707107), (-0.270598, 0.707107, 0.653281), (-0.5, 0.707107, 0.5),
            (-0.653281, 0.707107, 0.270598), (-0.707107, 0.707107, 8.65956e-17), (-0.653281, 0.707107, -0.270598), (-0.5, 0.707107, -0.5),
            (-0.270598, 0.707107, -0.653281), (-1.29893e-16, 0.707107, -0.707107), (0.270598, 0.707107, -0.653281), (0.5, 0.707107, -0.5),
            (0.653281, 0.707107, -0.270598), (0.866025, 0.5, 0), (0.800103, 0.5, 0.331414), (0.612372, 0.5, 0.612372),
            (0.331414, 0.5, 0.800103), (5.30288e-17, 0.5, 0.866025), (-0.331414, 0.5, 0.800103), (-0.612372, 0.5, 0.612372),
            (-0.800103, 0.5, 0.331414), (-0.866025, 0.5, 1.06058e-16), (-0.800103, 0.5, -0.331414), (-0.612372, 0.5, -0.612372),
            (-0.331414, 0.5, -0.800103), (-1.59086e-16, 0.5, -0.866025), (0.331414, 0.5, -0.800103), (0.612372, 0.5, -0.612372),
            (0.800103, 0.5, -0.331414), (0.965926, 0.258819, 0), (0.892399, 0.258819, 0.369644), (0.683013, 0.258819, 0.683013),
            (0.369644, 0.258819, 0.892399), (5.91459e-17, 0.258819, 0.965926), (-0.369644, 0.258819, 0.892399), (-0.683013, 0.258819, 0.683013),
            (-0.892399, 0.258819, 0.369644), (-0.965926, 0.258819, 1.18292e-16), (-0.892399, 0.258819, -0.369644), (-0.683013, 0.258819, -0.683013),
            (-0.369644, 0.258819, -0.892399), (-1.77438e-16, 0.258819, -0.965926), (0.369644, 0.258819, -0.892399), (0.683013, 0.258819, -0.683013),
            (0.892399, 0.258819, -0.369644), (1, 6.12323e-17, 0), (0.92388, 6.12323e-17, 0.382683), (0.707107, 6.12323e-17, 0.707107),
            (0.382683, 6.12323e-17, 0.92388), (6.12323e-17, 6.12323e-17, 1), (-0.382683, 6.12323e-17, 0.92388), (-0.707107, 6.12323e-17, 0.707107),
            (-0.92388, 6.12323e-17, 0.382683), (-1, 6.12323e-17, 1.22465e-16), (-0.92388, 6.12323e-17, -0.382683), (-0.707107, 6.12323e-17, -0.707107),
            (-0.382683, 6.12323e-17, -0.92388), (-1.83697e-16, 6.12323e-17, -1), (0.382683, 6.12323e-17, -0.92388), (0.707107, 6.12323e-17, -0.707107),
            (0.92388, 6.12323e-17, -0.382683), (0.965926, -0.258819, 0), (0.892399, -0.258819, 0.369644), (0.683013, -0.258819, 0.683013),
            (0.369644, -0.258819, 0.892399), (5.91459e-17, -0.258819, 0.965926), (-0.369644, -0.258819, 0.892399), (-0.683013, -0.258819, 0.683013),
            (-0.892399, -0.258819, 0.369644), (-0.965926, -0.258819, 1.18292e-16), (-0.892399, -0.258819, -0.369644), (-0.683013, -0.258819, -0.683013),
            (-0.369644, -0.258819, -0.892399), (-1.77438e-16, -0.258819, -0.965926), (0.369644, -0.258819, -0.892399), (0.683013, -0.258819, -0.683013),
            (0.892399, -0.258819, -0.369644), (0.866025, -0.5, 0), (0.800103, -0.5, 0.331414), (0.612372, -0.5, 0.612372),
            (0.331414, -0.5, 0.800103), (5.30288e-17, -0.5, 0.866025), (-0.331414, -0.5, 0.800103), (-0.612372, -0.5, 0.612372),
            (-0.800103, -0.5, 0.331414), (-0.866025, -0.5, 1.06058e-16), (-0.800103, -0.5, -0.331414), (-0.612372, -0.5, -0.612372),
            (-0.331414, -0.5, -0.800103), (-1.59086e-16, -0.5, -0.866025), (0.331414, -0.5, -0.800103), (0.612372, -0.5, -0.612372),
            (0.800103, -0.5, -0.331414), (0.707107, -0.707107, 0), (0.653281, -0.707107, 0.270598), (0.5, -0.707107, 0.5),
            (0.270598, -0.707107, 0.653281), (4.32978e-17, -0.707107, 0.707107), (-0.270598, -0.707107, 0.653281), (-0.5, -0.707107, 0.5),
            (-0.653281, -0.707107, 0.270598), (-0.707107, -0.707107, 8.65956e-17), (-0.653281, -0.707107, -0.270598), (-0.5, -0.707107, -0.5),
            (-0.270598, -0.707107, -0.653281), (-1.29893e-16, -0.707107, -0.707107), (0.270598, -0.707107, -0.653281), (0.5, -0.707107, -0.5),
            (0.653281, -0.707107, -0.270598), (0.5, -0.866025, 0), (0.46194, -0.866025, 0.191342), (0.353553, -0.866025, 0.353553),
            (0.191342, -0.866025, 0.46194), (3.06162e-17, -0.866025, 0.5), (-0.191342, -0.866025, 0.46194), (-0.353553, -0.866025, 0.353553),
            (-0.46194, -0.866025, 0.191342), (-0.5, -0.866025, 6.12323e-17), (-0.46194, -0.866025, -0.191342), (-0.353553, -0.866025, -0.353553),
            (-0.191342, -0.866025, -0.46194), (-9.18485e-17, -0.866025, -0.5), (0.191342, -0.866025, -0.46194), (0.353553, -0.866025, -0.353553),
            (0.46194, -0.866025, -0.191342), (0.258819, -0.965926, 0), (0.239118, -0.965926, 0.0990458), (0.183013, -0.965926, 0.183013),
            (0.0990458, -0.965926, 0.239118), (1.58481e-17, -0.965926, 0.258819), (-0.0990458, -0.965926, 0.239118), (-0.183013, -0.965926, 0.183013),
            (-0.239118, -0.965926, 0.0990458), (-0.258819, -0.965926, 3.16962e-17), (-0.239118, -0.965926, -0.0990458), (-0.183013, -0.965926, -0.183013),
            (-0.0990458, -0.965926, -0.239118), (-4.75443e-17, -0.965926, -0.258819), (0.0990458, -0.965926, -0.239118), (0.183013, -0.965926, -0.183013),
            (0.239118, -0.965926, -0.0990458), (0, -1, 0)
        ] (
            interpolation = "vertex"
        )
        texCoord2f[] primvars:st = [
            (0.5, 1), (0, 0.916667), (0.0625, 0.916667), (0.125, 0.916667), (0.1875, 0.916667), (0.25, 0.916667),
            (0.3125, 0.916667), (0.375, 0.916667), (0.4375, 0.916667), (0.5, 0.916667), (0.5625, 0.916667), (0.625, 0.916667),
            (0.6875, 0.916667), (0.75, 0.916667), (0.8125, 0.916667), (0.875, 0.916667), (0.9375, 0.916667), (0, 0.833333),
            (0.0625, 0.833333), (0.125, 0.833333), (0.1875, 0.833333), (0.25, 0.833333), (0.3125, 0.833333), (0.375, 0.833333),
            (0.4375, 0.833333), (0.5, 0.833333), (0.5625, 0.833333), (0.625, 0.833333), (0.6875, 0.833333), (0.75, 0.833333),
            (0.8125, 0.833333), (0.875, 0.833333), (0.9375, 0.833333), (0, 0.75), (0.0625, 0.75), (0.125, 0.75),
            (0.1875, 0.75), (0.25, 0.75), (0.3125, 0.75), (0.375, 0.75), (0.4375, 0.75), (0.5, 0.75),
            (0.5625, 0.75), (0.625, 0.75), (0.6875, 0.75), (0.75, 0.75), (0.8125, 0.75), (0.875, 0.75),
            (0.9375, 0.75), (0, 0.666667), (0.0625, 0.666667), (0.125, 0.666667), (0.1875, 0.666667), (0.25, 0.666667),
            (0.3125, 0.666667), (0.375, 0.666667), (0.4375, 0.666667), (0.5, 0.666667), (0.5625, 0.666667), (0.625, 0.666667),
            (0.6875, 0.666667), (0.75, 0.666667), (0.8125, 0.666667), (0.875, 0.666667), (0.9375, 0.666667), (0, 0.583333),
            (0.0625, 0.583333), (0.125, 0.583333), (0.1875, 0.583333), (0.25, 0.583333), (0.3125, 0.583333), (0.375, 0.583333),
            (0.4375, 0.583333), (0.5, 0.583333), (0.5625, 0.583333), (0.625, 0.583333), (0.6875, 0.583333), (0.75, 0.583333),
            (0.8125, 0.583333), (0.875, 0.583333), (0.9375, 0.583333), (0, 0.5), (0.0625, 0.5), (0.125, 0.5),
            (0.1875, 0.5), (0.25, 0.5), (0.3125, 0.5), (0.375, 0.5), (0.4375, 0.5), (0.5, 0.5),
            (0.5625, 0.5), (0.625, 0.5), (0.6875, 0.5), (0.75, 0.5), (0.8125, 0.5), (0.875, 0.5),
            (0.9375, 0.5), (0, 0.416667), (0.0625, 0.416667), (0.125, 0.416667), (0.1875, 0.416667), (0.25, 0.416667),
            (0.3125, 0.416667), (0.375, 0.416667), (0.4375, 0.416667), (0.5, 0.416667), (0.5625, 0.416667), (0.625, 0.416667),
            (0.6875, 0.416667), (0.75, 0.416667), (0.8125, 0.416667), (0.875, 0.416667), (0.9375, 0.416667), (0, 0.333333),
            (0.0625, 0.333333), (0.125, 0.333333), (0.1875, 0.333333), (0.25, 0.333333), (0.3125, 0.333333), (0.375, 0.333333),
            (0.4375, 0.333333), (0.5, 0.333333), (0.5625, 0.333333), (0.625, 0.333333), (0.6875, 0.333333), (0.75, 0.333333),
            (0.8125, 0.333333), (0.875, 0.333333), (0.9375, 0.333333), (0, 0.25), (0.0625, 0.25), (0.125, 0.25),
            (0.1875, 0.25), (0.25, 0.25), (0.3125, 0.25), (0.375, 0.25), (0.4375, 0.25), (0.5, 0.25),
            (0.5625, 0.25), (0.625, 0.25), (0.6875, 0.25), (0.75, 0.25), (0.8125, 0.25), (0.875, 0.25),
            (0.9375, 0.25), (0, 0.166667), (0.0625, 0.166667), (0.125, 0.166667), (0.1875, 0.166667), (0.25, 0.166667),
            (0.3125, 0.166667), (0.375, 0.166667), (0.4375, 0.166667), (0.5, 0.166667), (0.5625, 0.166667), (0.625, 0.166667),
            (0.6875, 0.166667), (0.75, 0.166667), (0.8125, 0.166667), (0.875, 0.166667), (0.9375, 0.166667), (0, 0.0833333),
            (0.0625, 0.0833333), (0.125, 0.0833333), (0.1875, 0.0833333), (0.25, 0.0833333), (0.3125, 0.0833333), (0.375, 0.0833333),
            (0.4375, 0.0833333), (0.5, 0.0833333), (0.5625, 0.0833333), (0.625, 0.0833333), (0.6875, 0.0833333), (0.75, 0.0833333),
            (0.8125, 0.0833333), (0.875, 0.0833333), (0.9375, 0.0833333), (0.5, 0)
        ] (
            interpolation = "vertex"
        )
        rel material:binding = </World/Looks/Backdrop>
    }

    over "Looks"
    {
        def Material "Backdrop"
        {
            token outputs:surface.connect = </World/Looks/Backdrop/Surface.outputs:surface>

            def Shader "Surface"
            {
                uniform token info:id = "UsdPreviewSurface"
                color3f inputs:diffuseColor = (0, 0, 0)
                color3f inputs:emissiveColor = (0.82, 0.82, 0.82)
                float inputs:roughness = 1
                token outputs:surface
            }
        }
    }
}
