#usda 1.0
(
    defaultPrim = "World"
    metersPerUnit = 1
    upAxis = "Y"
    doc = "Pomade P3: a committed-style ponytail groom (one tube, 25 guides) amplified by a usdGen description (scatter -> interp -> frizz -> width)."
)

# POMADE PONYTAIL (plan/17 P3 exit)
#
#   PomadeGroom/Tube_0     the authored tube (center + sections + fill)
#   PomadeGroom/Guides     25 hand-posed ponytail guides (purpose "guide")
#   Groom/Hair            the usdGen description; GuideInterpolate amplifies
#                         the Pomade guides into full-density strands
#
# The Guides are example content, NOT K9 kernel output, so PomadeHydrateModel
# fails closed on this file by design (the bit-equality assert only holds
# for kernel-generated guides). Recording shows the amplified hair cook.
#
# View it:   .\bin\launch_usdview.ps1 examples\pomade-ponytail.usda
# Record it: .\bin\record_usd.ps1 -Scene examples\pomade-ponytail.usda `
#                -Output out.png -Camera /World/Cam -Complexity veryhigh
# The generator that wrote this file is not in this repository.

def Xform "World"
{
    def Camera "Cam"
    {
        uniform token[] xformOpOrder = ["xformOp:transform"]
        matrix4d xformOp:transform = ( (0.748997, 0, -0.662574, 0), (-0.166286, 0.967995, -0.187976, 0), (0.641368, 0.25097, 0.725025, 0), (2.3, 1.5, 3, 1) )
        float2 clippingRange = (0.05, 50)
        float focalLength = 35
        float horizontalAperture = 24
        float verticalAperture = 18
    }

    def DistantLight "Key"
    {
        float inputs:intensity = 10
        bool inputs:normalize = 1
        color3f inputs:color = (1, 0.98, 0.94)
        float3 xformOp:rotateXYZ = (-10, 40, 0)
        uniform token[] xformOpOrder = ["xformOp:rotateXYZ"]
    }

    def DomeLight "Sky"
    {
        asset inputs:texture:file = @./maps/StinsonBeach.hdr@
        float inputs:intensity = 2
        color3f inputs:color = (1, 1, 1)
    }

    def Mesh "Skin" (
        prepend apiSchemas = ["UsdGenRestAPI"]
    )
    {
        float3[] extent = [(-1, -0.01, -1), (1, 0.01, 1)]
        uniform token subdivisionScheme = "none"
        int[] faceVertexCounts = [
        4, 4, 4, 4, 4, 4, 4, 4, 4, 4, 4, 4, 4, 4, 4, 4, 4, 4, 4, 4, 4, 4, 4, 4,
        4, 4, 4, 4, 4, 4, 4, 4, 4, 4, 4, 4, 4, 4, 4, 4, 4, 4, 4, 4, 4, 4, 4, 4,
        4, 4, 4, 4, 4, 4, 4, 4, 4, 4, 4, 4, 4, 4, 4, 4, 4, 4, 4, 4, 4, 4, 4, 4,
        4, 4, 4, 4, 4, 4, 4, 4, 4, 4, 4, 4, 4, 4, 4, 4, 4, 4, 4, 4, 4, 4, 4, 4,
        4, 4, 4, 4
        ]
        int[] faceVertexIndices = [
        0, 11, 12, 1, 1, 12, 13, 2, 2, 13, 14, 3, 3, 14, 15, 4, 4, 15, 16, 5,
        5, 16, 17, 6, 6, 17, 18, 7, 7, 18, 19, 8, 8, 19, 20, 9, 9, 20, 21, 10,
        11, 22, 23, 12, 12, 23, 24, 13, 13, 24, 25, 14, 14, 25, 26, 15, 15, 26, 27, 16,
        16, 27, 28, 17, 17, 28, 29, 18, 18, 29, 30, 19, 19, 30, 31, 20, 20, 31, 32, 21,
        22, 33, 34, 23, 23, 34, 35, 24, 24, 35, 36, 25, 25, 36, 37, 26, 26, 37, 38, 27,
        27, 38, 39, 28, 28, 39, 40, 29, 29, 40, 41, 30, 30, 41, 42, 31, 31, 42, 43, 32,
        33, 44, 45, 34, 34, 45, 46, 35, 35, 46, 47, 36, 36, 47, 48, 37, 37, 48, 49, 38,
        38, 49, 50, 39, 39, 50, 51, 40, 40, 51, 52, 41, 41, 52, 53, 42, 42, 53, 54, 43,
        44, 55, 56, 45, 45, 56, 57, 46, 46, 57, 58, 47, 47, 58, 59, 48, 48, 59, 60, 49,
        49, 60, 61, 50, 50, 61, 62, 51, 51, 62, 63, 52, 52, 63, 64, 53, 53, 64, 65, 54,
        55, 66, 67, 56, 56, 67, 68, 57, 57, 68, 69, 58, 58, 69, 70, 59, 59, 70, 71, 60,
        60, 71, 72, 61, 61, 72, 73, 62, 62, 73, 74, 63, 63, 74, 75, 64, 64, 75, 76, 65,
        66, 77, 78, 67, 67, 78, 79, 68, 68, 79, 80, 69, 69, 80, 81, 70, 70, 81, 82, 71,
        71, 82, 83, 72, 72, 83, 84, 73, 73, 84, 85, 74, 74, 85, 86, 75, 75, 86, 87, 76,
        77, 88, 89, 78, 78, 89, 90, 79, 79, 90, 91, 80, 80, 91, 92, 81, 81, 92, 93, 82,
        82, 93, 94, 83, 83, 94, 95, 84, 84, 95, 96, 85, 85, 96, 97, 86, 86, 97, 98, 87,
        88, 99, 100, 89, 89, 100, 101, 90, 90, 101, 102, 91, 91, 102, 103, 92, 92, 103, 104, 93,
        93, 104, 105, 94, 94, 105, 106, 95, 95, 106, 107, 96, 96, 107, 108, 97, 97, 108, 109, 98,
        99, 110, 111, 100, 100, 111, 112, 101, 101, 112, 113, 102, 102, 113, 114, 103, 103, 114, 115, 104,
        104, 115, 116, 105, 105, 116, 117, 106, 106, 117, 118, 107, 107, 118, 119, 108, 108, 119, 120, 109
        ]
        point3f[] points = [
        (-1, 0, -1), (-0.8, 0, -1), (-0.6, 0, -1),
        (-0.4, 0, -1), (-0.2, 0, -1), (0, 0, -1),
        (0.2, 0, -1), (0.4, 0, -1), (0.6, 0, -1),
        (0.8, 0, -1), (1, 0, -1), (-1, 0, -0.8),
        (-0.8, 0, -0.8), (-0.6, 0, -0.8), (-0.4, 0, -0.8),
        (-0.2, 0, -0.8), (0, 0, -0.8), (0.2, 0, -0.8),
        (0.4, 0, -0.8), (0.6, 0, -0.8), (0.8, 0, -0.8),
        (1, 0, -0.8), (-1, 0, -0.6), (-0.8, 0, -0.6),
        (-0.6, 0, -0.6), (-0.4, 0, -0.6), (-0.2, 0, -0.6),
        (0, 0, -0.6), (0.2, 0, -0.6), (0.4, 0, -0.6),
        (0.6, 0, -0.6), (0.8, 0, -0.6), (1, 0, -0.6),
        (-1, 0, -0.4), (-0.8, 0, -0.4), (-0.6, 0, -0.4),
        (-0.4, 0, -0.4), (-0.2, 0, -0.4), (0, 0, -0.4),
        (0.2, 0, -0.4), (0.4, 0, -0.4), (0.6, 0, -0.4),
        (0.8, 0, -0.4), (1, 0, -0.4), (-1, 0, -0.2),
        (-0.8, 0, -0.2), (-0.6, 0, -0.2), (-0.4, 0, -0.2),
        (-0.2, 0, -0.2), (0, 0, -0.2), (0.2, 0, -0.2),
        (0.4, 0, -0.2), (0.6, 0, -0.2), (0.8, 0, -0.2),
        (1, 0, -0.2), (-1, 0, 0), (-0.8, 0, 0),
        (-0.6, 0, 0), (-0.4, 0, 0), (-0.2, 0, 0),
        (0, 0, 0), (0.2, 0, 0), (0.4, 0, 0),
        (0.6, 0, 0), (0.8, 0, 0), (1, 0, 0),
        (-1, 0, 0.2), (-0.8, 0, 0.2), (-0.6, 0, 0.2),
        (-0.4, 0, 0.2), (-0.2, 0, 0.2), (0, 0, 0.2),
        (0.2, 0, 0.2), (0.4, 0, 0.2), (0.6, 0, 0.2),
        (0.8, 0, 0.2), (1, 0, 0.2), (-1, 0, 0.4),
        (-0.8, 0, 0.4), (-0.6, 0, 0.4), (-0.4, 0, 0.4),
        (-0.2, 0, 0.4), (0, 0, 0.4), (0.2, 0, 0.4),
        (0.4, 0, 0.4), (0.6, 0, 0.4), (0.8, 0, 0.4),
        (1, 0, 0.4), (-1, 0, 0.6), (-0.8, 0, 0.6),
        (-0.6, 0, 0.6), (-0.4, 0, 0.6), (-0.2, 0, 0.6),
        (0, 0, 0.6), (0.2, 0, 0.6), (0.4, 0, 0.6),
        (0.6, 0, 0.6), (0.8, 0, 0.6), (1, 0, 0.6),
        (-1, 0, 0.8), (-0.8, 0, 0.8), (-0.6, 0, 0.8),
        (-0.4, 0, 0.8), (-0.2, 0, 0.8), (0, 0, 0.8),
        (0.2, 0, 0.8), (0.4, 0, 0.8), (0.6, 0, 0.8),
        (0.8, 0, 0.8), (1, 0, 0.8), (-1, 0, 1),
        (-0.8, 0, 1), (-0.6, 0, 1), (-0.4, 0, 1),
        (-0.2, 0, 1), (0, 0, 1), (0.2, 0, 1),
        (0.4, 0, 1), (0.6, 0, 1), (0.8, 0, 1),
        (1, 0, 1)
        ]
        point3f[] primvars:rest = [
        (-1, 0, -1), (-0.8, 0, -1), (-0.6, 0, -1),
        (-0.4, 0, -1), (-0.2, 0, -1), (0, 0, -1),
        (0.2, 0, -1), (0.4, 0, -1), (0.6, 0, -1),
        (0.8, 0, -1), (1, 0, -1), (-1, 0, -0.8),
        (-0.8, 0, -0.8), (-0.6, 0, -0.8), (-0.4, 0, -0.8),
        (-0.2, 0, -0.8), (0, 0, -0.8), (0.2, 0, -0.8),
        (0.4, 0, -0.8), (0.6, 0, -0.8), (0.8, 0, -0.8),
        (1, 0, -0.8), (-1, 0, -0.6), (-0.8, 0, -0.6),
        (-0.6, 0, -0.6), (-0.4, 0, -0.6), (-0.2, 0, -0.6),
        (0, 0, -0.6), (0.2, 0, -0.6), (0.4, 0, -0.6),
        (0.6, 0, -0.6), (0.8, 0, -0.6), (1, 0, -0.6),
        (-1, 0, -0.4), (-0.8, 0, -0.4), (-0.6, 0, -0.4),
        (-0.4, 0, -0.4), (-0.2, 0, -0.4), (0, 0, -0.4),
        (0.2, 0, -0.4), (0.4, 0, -0.4), (0.6, 0, -0.4),
        (0.8, 0, -0.4), (1, 0, -0.4), (-1, 0, -0.2),
        (-0.8, 0, -0.2), (-0.6, 0, -0.2), (-0.4, 0, -0.2),
        (-0.2, 0, -0.2), (0, 0, -0.2), (0.2, 0, -0.2),
        (0.4, 0, -0.2), (0.6, 0, -0.2), (0.8, 0, -0.2),
        (1, 0, -0.2), (-1, 0, 0), (-0.8, 0, 0),
        (-0.6, 0, 0), (-0.4, 0, 0), (-0.2, 0, 0),
        (0, 0, 0), (0.2, 0, 0), (0.4, 0, 0),
        (0.6, 0, 0), (0.8, 0, 0), (1, 0, 0),
        (-1, 0, 0.2), (-0.8, 0, 0.2), (-0.6, 0, 0.2),
        (-0.4, 0, 0.2), (-0.2, 0, 0.2), (0, 0, 0.2),
        (0.2, 0, 0.2), (0.4, 0, 0.2), (0.6, 0, 0.2),
        (0.8, 0, 0.2), (1, 0, 0.2), (-1, 0, 0.4),
        (-0.8, 0, 0.4), (-0.6, 0, 0.4), (-0.4, 0, 0.4),
        (-0.2, 0, 0.4), (0, 0, 0.4), (0.2, 0, 0.4),
        (0.4, 0, 0.4), (0.6, 0, 0.4), (0.8, 0, 0.4),
        (1, 0, 0.4), (-1, 0, 0.6), (-0.8, 0, 0.6),
        (-0.6, 0, 0.6), (-0.4, 0, 0.6), (-0.2, 0, 0.6),
        (0, 0, 0.6), (0.2, 0, 0.6), (0.4, 0, 0.6),
        (0.6, 0, 0.6), (0.8, 0, 0.6), (1, 0, 0.6),
        (-1, 0, 0.8), (-0.8, 0, 0.8), (-0.6, 0, 0.8),
        (-0.4, 0, 0.8), (-0.2, 0, 0.8), (0, 0, 0.8),
        (0.2, 0, 0.8), (0.4, 0, 0.8), (0.6, 0, 0.8),
        (0.8, 0, 0.8), (1, 0, 0.8), (-1, 0, 1),
        (-0.8, 0, 1), (-0.6, 0, 1), (-0.4, 0, 1),
        (-0.2, 0, 1), (0, 0, 1), (0.2, 0, 1),
        (0.4, 0, 1), (0.6, 0, 1), (0.8, 0, 1),
        (1, 0, 1)
        ] (
            interpolation = "vertex"
        )
        texCoord2f[] primvars:st = [
        (0, 0), (0.1, 0), (0.2, 0), (0.3, 0), (0.4, 0), (0.5, 0), (0.6, 0), (0.7, 0),
        (0.8, 0), (0.9, 0), (1, 0), (0, 0.1), (0.1, 0.1), (0.2, 0.1), (0.3, 0.1), (0.4, 0.1),
        (0.5, 0.1), (0.6, 0.1), (0.7, 0.1), (0.8, 0.1), (0.9, 0.1), (1, 0.1), (0, 0.2), (0.1, 0.2),
        (0.2, 0.2), (0.3, 0.2), (0.4, 0.2), (0.5, 0.2), (0.6, 0.2), (0.7, 0.2), (0.8, 0.2), (0.9, 0.2),
        (1, 0.2), (0, 0.3), (0.1, 0.3), (0.2, 0.3), (0.3, 0.3), (0.4, 0.3), (0.5, 0.3), (0.6, 0.3),
        (0.7, 0.3), (0.8, 0.3), (0.9, 0.3), (1, 0.3), (0, 0.4), (0.1, 0.4), (0.2, 0.4), (0.3, 0.4),
        (0.4, 0.4), (0.5, 0.4), (0.6, 0.4), (0.7, 0.4), (0.8, 0.4), (0.9, 0.4), (1, 0.4), (0, 0.5),
        (0.1, 0.5), (0.2, 0.5), (0.3, 0.5), (0.4, 0.5), (0.5, 0.5), (0.6, 0.5), (0.7, 0.5), (0.8, 0.5),
        (0.9, 0.5), (1, 0.5), (0, 0.6), (0.1, 0.6), (0.2, 0.6), (0.3, 0.6), (0.4, 0.6), (0.5, 0.6),
        (0.6, 0.6), (0.7, 0.6), (0.8, 0.6), (0.9, 0.6), (1, 0.6), (0, 0.7), (0.1, 0.7), (0.2, 0.7),
        (0.3, 0.7), (0.4, 0.7), (0.5, 0.7), (0.6, 0.7), (0.7, 0.7), (0.8, 0.7), (0.9, 0.7), (1, 0.7),
        (0, 0.8), (0.1, 0.8), (0.2, 0.8), (0.3, 0.8), (0.4, 0.8), (0.5, 0.8), (0.6, 0.8), (0.7, 0.8),
        (0.8, 0.8), (0.9, 0.8), (1, 0.8), (0, 0.9), (0.1, 0.9), (0.2, 0.9), (0.3, 0.9), (0.4, 0.9),
        (0.5, 0.9), (0.6, 0.9), (0.7, 0.9), (0.8, 0.9), (0.9, 0.9), (1, 0.9), (0, 1), (0.1, 1),
        (0.2, 1), (0.3, 1), (0.4, 1), (0.5, 1), (0.6, 1), (0.7, 1), (0.8, 1), (0.9, 1),
        (1, 1)
        ] (
            interpolation = "vertex"
        )
        color3f[] primvars:displayColor = [(0.22, 0.2, 0.19)]
    }

    def UsdGenPomadeGroom "PomadeGroom"
    {
        token usdGen:pomade:version = "1"

        def Scope "Tubes"
        {
            def UsdGenTube "Tube_0"
            {
                int usdGen:pomade:regionId = 0
                int usdGen:pomade:level = 1
                point3f[] usdGen:pomade:centerPoints = [(0, 0, 0.3), (0, 0.3, 0.36), (0, 0.6, 0.48), (0, 0.9, 0.7), (0, 1.12, 0.92)]
                float[] usdGen:pomade:sectionT = [0, 0.25, 0.5, 0.75, 1]
                int usdGen:pomade:sectionCvCount = 8
                float2[] usdGen:pomade:sectionCvs = [
        (0.24, 0), (0.169706, 0.169706), (1.46958e-17, 0.24), (-0.169706, 0.169706),
        (-0.24, 2.93915e-17), (-0.169706, -0.169706), (-4.40873e-17, -0.24), (0.169706, -0.169706),
        (0.2, 0), (0.141421, 0.141421), (1.22465e-17, 0.2), (-0.141421, 0.141421),
        (-0.2, 2.44929e-17), (-0.141421, -0.141421), (-3.67394e-17, -0.2), (0.141421, -0.141421),
        (0.12, 0), (0.0848528, 0.0848528), (7.34788e-18, 0.12), (-0.0848528, 0.0848528),
        (-0.12, 1.46958e-17), (-0.0848528, -0.0848528), (-2.20436e-17, -0.12), (0.0848528, -0.0848528),
        (0.14, 0), (0.0989949, 0.0989949), (8.57253e-18, 0.14), (-0.0989949, 0.0989949),
        (-0.14, 1.71451e-17), (-0.0989949, -0.0989949), (-2.57176e-17, -0.14), (0.0989949, -0.0989949),
        (0.16, 0), (0.113137, 0.113137), (9.79717e-18, 0.16), (-0.113137, 0.113137),
        (-0.16, 1.95943e-17), (-0.113137, -0.113137), (-2.93915e-17, -0.16), (0.113137, -0.113137)
                ]
                int usdGen:pomade:childIndex = -1
                point3f[] usdGen:pomade:centerDeltas = []
                float2[] usdGen:pomade:sectionDeltas = []
                int usdGen:pomade:subdivide:count = 0
                int usdGen:pomade:subdivide:seed = 0
                token usdGen:pomade:subdivide:splitMode = "none"
                float usdGen:pomade:fill:density = 100
                int usdGen:pomade:fill:cvCount = 8
                float[] usdGen:pomade:fill:lengthProfile = []
                int usdGen:pomade:fill:seed = 0
                float usdGen:pomade:fill:edgeBias = 0
                bool usdGen:pomade:locked = 0
                bool usdGen:pomade:lockParents = 0
                bool usdGen:pomade:lockChildren = 0
            }
        }

        def BasisCurves "Guides" (
            prepend apiSchemas = ["UsdGenCurveAPI"]
        )
        {
            float3[] extent = [(-0.18, 0, 0.12), (0.18, 1.12, 1.019)]
            uniform token purpose = "guide"
            uniform token type = "cubic"
            uniform token basis = "bspline"
            uniform token wrap = "pinned"
            int[] curveVertexCounts = [
        8, 8, 8, 8, 8, 8, 8, 8, 8, 8, 8, 8, 8, 8, 8, 8, 8, 8, 8, 8, 8, 8, 8, 8, 8
            ]
            point3f[] points = [
        (-0.18, 0, 0.12), (-0.162, 0.18, 0.158),
        (-0.126, 0.38, 0.254), (-0.081, 0.55, 0.348),
        (-0.09, 0.72, 0.478), (-0.108, 0.88, 0.599),
        (-0.126, 1.02, 0.71), (-0.144, 1.12, 0.821),
        (-0.09, 0, 0.12), (-0.081, 0.18, 0.158),
        (-0.063, 0.38, 0.254), (-0.0405, 0.55, 0.348),
        (-0.045, 0.72, 0.478), (-0.054, 0.88, 0.599),
        (-0.063, 1.02, 0.71), (-0.072, 1.12, 0.821),
        (0, 0, 0.12), (0, 0.18, 0.158),
        (0, 0.38, 0.254), (0, 0.55, 0.348),
        (0, 0.72, 0.478), (0, 0.88, 0.599),
        (0, 1.02, 0.71), (0, 1.12, 0.821),
        (0.09, 0, 0.12), (0.081, 0.18, 0.158),
        (0.063, 0.38, 0.254), (0.0405, 0.55, 0.348),
        (0.045, 0.72, 0.478), (0.054, 0.88, 0.599),
        (0.063, 1.02, 0.71), (0.072, 1.12, 0.821),
        (0.18, 0, 0.12), (0.162, 0.18, 0.158),
        (0.126, 0.38, 0.254), (0.081, 0.55, 0.348),
        (0.09, 0.72, 0.478), (0.108, 0.88, 0.599),
        (0.126, 1.02, 0.71), (0.144, 1.12, 0.821),
        (-0.18, 0, 0.21), (-0.162, 0.18, 0.239),
        (-0.126, 0.38, 0.317), (-0.081, 0.55, 0.384),
        (-0.09, 0.72, 0.514), (-0.108, 0.88, 0.6395),
        (-0.126, 1.02, 0.755), (-0.144, 1.12, 0.8705),
        (-0.09, 0, 0.21), (-0.081, 0.18, 0.239),
        (-0.063, 0.38, 0.317), (-0.0405, 0.55, 0.384),
        (-0.045, 0.72, 0.514), (-0.054, 0.88, 0.6395),
        (-0.063, 1.02, 0.755), (-0.072, 1.12, 0.8705),
        (0, 0, 0.21), (0, 0.18, 0.239),
        (0, 0.38, 0.317), (0, 0.55, 0.384),
        (0, 0.72, 0.514), (0, 0.88, 0.6395),
        (0, 1.02, 0.755), (0, 1.12, 0.8705),
        (0.09, 0, 0.21), (0.081, 0.18, 0.239),
        (0.063, 0.38, 0.317), (0.0405, 0.55, 0.384),
        (0.045, 0.72, 0.514), (0.054, 0.88, 0.6395),
        (0.063, 1.02, 0.755), (0.072, 1.12, 0.8705),
        (0.18, 0, 0.21), (0.162, 0.18, 0.239),
        (0.126, 0.38, 0.317), (0.081, 0.55, 0.384),
        (0.09, 0.72, 0.514), (0.108, 0.88, 0.6395),
        (0.126, 1.02, 0.755), (0.144, 1.12, 0.8705),
        (-0.18, 0, 0.3), (-0.162, 0.18, 0.32),
        (-0.126, 0.38, 0.38), (-0.081, 0.55, 0.42),
        (-0.09, 0.72, 0.55), (-0.108, 0.88, 0.68),
        (-0.126, 1.02, 0.8), (-0.144, 1.12, 0.92),
        (-0.09, 0, 0.3), (-0.081, 0.18, 0.32),
        (-0.063, 0.38, 0.38), (-0.0405, 0.55, 0.42),
        (-0.045, 0.72, 0.55), (-0.054, 0.88, 0.68),
        (-0.063, 1.02, 0.8), (-0.072, 1.12, 0.92),
        (0, 0, 0.3), (0, 0.18, 0.32),
        (0, 0.38, 0.38), (0, 0.55, 0.42),
        (0, 0.72, 0.55), (0, 0.88, 0.68),
        (0, 1.02, 0.8), (0, 1.12, 0.92),
        (0.09, 0, 0.3), (0.081, 0.18, 0.32),
        (0.063, 0.38, 0.38), (0.0405, 0.55, 0.42),
        (0.045, 0.72, 0.55), (0.054, 0.88, 0.68),
        (0.063, 1.02, 0.8), (0.072, 1.12, 0.92),
        (0.18, 0, 0.3), (0.162, 0.18, 0.32),
        (0.126, 0.38, 0.38), (0.081, 0.55, 0.42),
        (0.09, 0.72, 0.55), (0.108, 0.88, 0.68),
        (0.126, 1.02, 0.8), (0.144, 1.12, 0.92),
        (-0.18, 0, 0.39), (-0.162, 0.18, 0.401),
        (-0.126, 0.38, 0.443), (-0.081, 0.55, 0.456),
        (-0.09, 0.72, 0.586), (-0.108, 0.88, 0.7205),
        (-0.126, 1.02, 0.845), (-0.144, 1.12, 0.9695),
        (-0.09, 0, 0.39), (-0.081, 0.18, 0.401),
        (-0.063, 0.38, 0.443), (-0.0405, 0.55, 0.456),
        (-0.045, 0.72, 0.586), (-0.054, 0.88, 0.7205),
        (-0.063, 1.02, 0.845), (-0.072, 1.12, 0.9695),
        (0, 0, 0.39), (0, 0.18, 0.401),
        (0, 0.38, 0.443), (0, 0.55, 0.456),
        (0, 0.72, 0.586), (0, 0.88, 0.7205),
        (0, 1.02, 0.845), (0, 1.12, 0.9695),
        (0.09, 0, 0.39), (0.081, 0.18, 0.401),
        (0.063, 0.38, 0.443), (0.0405, 0.55, 0.456),
        (0.045, 0.72, 0.586), (0.054, 0.88, 0.7205),
        (0.063, 1.02, 0.845), (0.072, 1.12, 0.9695),
        (0.18, 0, 0.39), (0.162, 0.18, 0.401),
        (0.126, 0.38, 0.443), (0.081, 0.55, 0.456),
        (0.09, 0.72, 0.586), (0.108, 0.88, 0.7205),
        (0.126, 1.02, 0.845), (0.144, 1.12, 0.9695),
        (-0.18, 0, 0.48), (-0.162, 0.18, 0.482),
        (-0.126, 0.38, 0.506), (-0.081, 0.55, 0.492),
        (-0.09, 0.72, 0.622), (-0.108, 0.88, 0.761),
        (-0.126, 1.02, 0.89), (-0.144, 1.12, 1.019),
        (-0.09, 0, 0.48), (-0.081, 0.18, 0.482),
        (-0.063, 0.38, 0.506), (-0.0405, 0.55, 0.492),
        (-0.045, 0.72, 0.622), (-0.054, 0.88, 0.761),
        (-0.063, 1.02, 0.89), (-0.072, 1.12, 1.019),
        (0, 0, 0.48), (0, 0.18, 0.482),
        (0, 0.38, 0.506), (0, 0.55, 0.492),
        (0, 0.72, 0.622), (0, 0.88, 0.761),
        (0, 1.02, 0.89), (0, 1.12, 1.019),
        (0.09, 0, 0.48), (0.081, 0.18, 0.482),
        (0.063, 0.38, 0.506), (0.0405, 0.55, 0.492),
        (0.045, 0.72, 0.622), (0.054, 0.88, 0.761),
        (0.063, 1.02, 0.89), (0.072, 1.12, 1.019),
        (0.18, 0, 0.48), (0.162, 0.18, 0.482),
        (0.126, 0.38, 0.506), (0.081, 0.55, 0.492),
        (0.09, 0.72, 0.622), (0.108, 0.88, 0.761),
        (0.126, 1.02, 0.89), (0.144, 1.12, 1.019)
            ]
            float[] widths = [
        0.008, 0.0072, 0.0064, 0.0056, 0.0048, 0.004, 0.0032, 0.0024,
        0.008, 0.0072, 0.0064, 0.0056, 0.0048, 0.004, 0.0032, 0.0024,
        0.008, 0.0072, 0.0064, 0.0056, 0.0048, 0.004, 0.0032, 0.0024,
        0.008, 0.0072, 0.0064, 0.0056, 0.0048, 0.004, 0.0032, 0.0024,
        0.008, 0.0072, 0.0064, 0.0056, 0.0048, 0.004, 0.0032, 0.0024,
        0.008, 0.0072, 0.0064, 0.0056, 0.0048, 0.004, 0.0032, 0.0024,
        0.008, 0.0072, 0.0064, 0.0056, 0.0048, 0.004, 0.0032, 0.0024,
        0.008, 0.0072, 0.0064, 0.0056, 0.0048, 0.004, 0.0032, 0.0024,
        0.008, 0.0072, 0.0064, 0.0056, 0.0048, 0.004, 0.0032, 0.0024,
        0.008, 0.0072, 0.0064, 0.0056, 0.0048, 0.004, 0.0032, 0.0024,
        0.008, 0.0072, 0.0064, 0.0056, 0.0048, 0.004, 0.0032, 0.0024,
        0.008, 0.0072, 0.0064, 0.0056, 0.0048, 0.004, 0.0032, 0.0024,
        0.008, 0.0072, 0.0064, 0.0056, 0.0048, 0.004, 0.0032, 0.0024,
        0.008, 0.0072, 0.0064, 0.0056, 0.0048, 0.004, 0.0032, 0.0024,
        0.008, 0.0072, 0.0064, 0.0056, 0.0048, 0.004, 0.0032, 0.0024,
        0.008, 0.0072, 0.0064, 0.0056, 0.0048, 0.004, 0.0032, 0.0024,
        0.008, 0.0072, 0.0064, 0.0056, 0.0048, 0.004, 0.0032, 0.0024,
        0.008, 0.0072, 0.0064, 0.0056, 0.0048, 0.004, 0.0032, 0.0024,
        0.008, 0.0072, 0.0064, 0.0056, 0.0048, 0.004, 0.0032, 0.0024,
        0.008, 0.0072, 0.0064, 0.0056, 0.0048, 0.004, 0.0032, 0.0024,
        0.008, 0.0072, 0.0064, 0.0056, 0.0048, 0.004, 0.0032, 0.0024,
        0.008, 0.0072, 0.0064, 0.0056, 0.0048, 0.004, 0.0032, 0.0024,
        0.008, 0.0072, 0.0064, 0.0056, 0.0048, 0.004, 0.0032, 0.0024,
        0.008, 0.0072, 0.0064, 0.0056, 0.0048, 0.004, 0.0032, 0.0024,
        0.008, 0.0072, 0.0064, 0.0056, 0.0048, 0.004, 0.0032, 0.0024
            ] (
                interpolation = "vertex"
            )
            uint64[] primvars:usdGen:curveId = [
        1000, 1001, 1002, 1003, 1004, 1005, 1006, 1007, 1008, 1009, 1010, 1011, 1012, 1013, 1014, 1015, 1016, 1017, 1018, 1019, 1020, 1021, 1022, 1023, 1024
            ] (
                interpolation = "uniform"
            )
            int[] primvars:usdGen:tubeId = [0, 0, 0, 0, 0, 0, 0, 0, 0, 0, 0, 0, 0, 0, 0, 0, 0, 0, 0, 0, 0, 0, 0, 0, 0] (
                interpolation = "uniform"
            )
            int[] primvars:usdGen:regionId = [0, 0, 0, 0, 0, 0, 0, 0, 0, 0, 0, 0, 0, 0, 0, 0, 0, 0, 0, 0, 0, 0, 0, 0, 0] (
                interpolation = "uniform"
            )
            int[] primvars:usdGen:hierarchyLevel = [1, 1, 1, 1, 1, 1, 1, 1, 1, 1, 1, 1, 1, 1, 1, 1, 1, 1, 1, 1, 1, 1, 1, 1, 1] (
                interpolation = "uniform"
            )
            matrix4d[] primvars:usdGen:rootFrame = [
        ((1, 0, 0, 0), (0, 0, 1, 0), (0, 1, 0, 0), (-0.18, 0, 0.12, 1)),
        ((1, 0, 0, 0), (0, 0, 1, 0), (0, 1, 0, 0), (-0.09, 0, 0.12, 1)),
        ((1, 0, 0, 0), (0, 0, 1, 0), (0, 1, 0, 0), (0, 0, 0.12, 1)),
        ((1, 0, 0, 0), (0, 0, 1, 0), (0, 1, 0, 0), (0.09, 0, 0.12, 1)),
        ((1, 0, 0, 0), (0, 0, 1, 0), (0, 1, 0, 0), (0.18, 0, 0.12, 1)),
        ((1, 0, 0, 0), (0, 0, 1, 0), (0, 1, 0, 0), (-0.18, 0, 0.21, 1)),
        ((1, 0, 0, 0), (0, 0, 1, 0), (0, 1, 0, 0), (-0.09, 0, 0.21, 1)),
        ((1, 0, 0, 0), (0, 0, 1, 0), (0, 1, 0, 0), (0, 0, 0.21, 1)),
        ((1, 0, 0, 0), (0, 0, 1, 0), (0, 1, 0, 0), (0.09, 0, 0.21, 1)),
        ((1, 0, 0, 0), (0, 0, 1, 0), (0, 1, 0, 0), (0.18, 0, 0.21, 1)),
        ((1, 0, 0, 0), (0, 0, 1, 0), (0, 1, 0, 0), (-0.18, 0, 0.3, 1)),
        ((1, 0, 0, 0), (0, 0, 1, 0), (0, 1, 0, 0), (-0.09, 0, 0.3, 1)),
        ((1, 0, 0, 0), (0, 0, 1, 0), (0, 1, 0, 0), (0, 0, 0.3, 1)),
        ((1, 0, 0, 0), (0, 0, 1, 0), (0, 1, 0, 0), (0.09, 0, 0.3, 1)),
        ((1, 0, 0, 0), (0, 0, 1, 0), (0, 1, 0, 0), (0.18, 0, 0.3, 1)),
        ((1, 0, 0, 0), (0, 0, 1, 0), (0, 1, 0, 0), (-0.18, 0, 0.39, 1)),
        ((1, 0, 0, 0), (0, 0, 1, 0), (0, 1, 0, 0), (-0.09, 0, 0.39, 1)),
        ((1, 0, 0, 0), (0, 0, 1, 0), (0, 1, 0, 0), (0, 0, 0.39, 1)),
        ((1, 0, 0, 0), (0, 0, 1, 0), (0, 1, 0, 0), (0.09, 0, 0.39, 1)),
        ((1, 0, 0, 0), (0, 0, 1, 0), (0, 1, 0, 0), (0.18, 0, 0.39, 1)),
        ((1, 0, 0, 0), (0, 0, 1, 0), (0, 1, 0, 0), (-0.18, 0, 0.48, 1)),
        ((1, 0, 0, 0), (0, 0, 1, 0), (0, 1, 0, 0), (-0.09, 0, 0.48, 1)),
        ((1, 0, 0, 0), (0, 0, 1, 0), (0, 1, 0, 0), (0, 0, 0.48, 1)),
        ((1, 0, 0, 0), (0, 0, 1, 0), (0, 1, 0, 0), (0.09, 0, 0.48, 1)),
        ((1, 0, 0, 0), (0, 0, 1, 0), (0, 1, 0, 0), (0.18, 0, 0.48, 1))
            ]
            color3f[] primvars:displayColor = [(0.95, 0.35, 0.1)]
        }
    }

    def Xform "Groom"
    {
        def UsdGenDescription "Hair"
        {
            rel usdGen:surface = </World/Skin>
            uniform token usdGen:curve:basis = "bspline"
            float usdGen:width:default = 0.004

            def Scope "Ops"
            {
                def UsdGenWidth "width"
                {
                    float usdGen:width = 0.0055
                    float2[] usdGen:width:knots = [(0, 1), (0.7, 0.75), (1, 0.15)]
                    bool usdGen:replace = true
                }

                def UsdGenNoise "frizz"
                {
                    int usdGen:seed = 3
                    float usdGen:noise:magnitude = 0.012
                    float2[] usdGen:noise:magnitude:knots = [(0, 0), (1, 1)]
                    float usdGen:noise:frequency = 6
                    int usdGen:noise:octaves = 2
                    float usdGen:preserveLength = 1
                }

                def UsdGenGuideInterpolate "interp"
                {
                    int usdGen:seed = 11
                    rel usdGen:guides = </World/PomadeGroom/Guides>
                    int usdGen:cvCount = 12
                    int usdGen:maxGuides = 3
                    float usdGen:influenceRadius = 0.9
                    float usdGen:influenceDecay = 1.5
                    uniform token usdGen:blendMethod = "extrudeAndBlend"
                    float usdGen:blendInSkinSpace = 1
                    float usdGen:randomizeGuide = 0.15
                    float usdGen:region = 0
                    float usdGen:regionCrossover = 0
                }

                def UsdGenScatter "scatter"
                {
                    int usdGen:seed = 5
                    float usdGen:density = 3500
                }
            }
        }
    }
}
