#usda 1.0
# Pomade P2 Graph-mode fixture: a 4x4 quad scalp in the XZ plane.

def Mesh "Scalp"
{
    float3[] extent = [(-0.5, -0.5, -0.5), (4.5, 0.5, 4.5)]
    int[] faceVertexCounts = [4, 4, 4, 4, 4, 4, 4, 4, 4, 4, 4, 4, 4, 4, 4, 4]
    int[] faceVertexIndices = [0, 1, 6, 5, 1, 2, 7, 6, 2, 3, 8, 7, 3, 4, 9, 8, 5, 6, 11, 10, 6, 7, 12, 11, 7, 8, 13, 12, 8, 9, 14, 13, 10, 11, 16, 15, 11, 12, 17, 16, 12, 13, 18, 17, 13, 14, 19, 18, 15, 16, 21, 20, 16, 17, 22, 21, 17, 18, 23, 22, 18, 19, 24, 23]
    point3f[] points = [(0, 0, 0), (0, 0, 1), (0, 0, 2), (0, 0, 3), (0, 0, 4), (1, 0, 0), (1, 0, 1), (1, 0, 2), (1, 0, 3), (1, 0, 4), (2, 0, 0), (2, 0, 1), (2, 0, 2), (2, 0, 3), (2, 0, 4), (3, 0, 0), (3, 0, 1), (3, 0, 2), (3, 0, 3), (3, 0, 4), (4, 0, 0), (4, 0, 1), (4, 0, 2), (4, 0, 3), (4, 0, 4)]
}

def Scope "Groom"
{
    def Scope "Hair"
    {
    }
}
