<svg xmlns="http://www.w3.org/2000/svg" width="1200" height="680" viewBox="0 0 1200 680" role="img" aria-label="Part source diagram">
<!-- Copyright (c) 2026 Nick Burkard; SPDX-License-Identifier: MIT -->
<defs><linearGradient id="bg" x2="0" y2="1"><stop stop-color="#1e2b34"/><stop offset="1" stop-color="#101b23"/></linearGradient></defs>
<rect width="1200" height="680" fill="url(#bg)"/>
<rect x="48" y="36" width="144" height="27" rx="13" fill="#344a50"/>
<text x="62" y="55" fill="#b8d9d7" font-family="Arial, sans-serif" font-size="13" font-weight="700">SOURCE DIAGRAM</text>
<text x="49" y="112" fill="#f8e7cf" font-family="Arial, sans-serif" font-size="48" font-weight="700">Part</text>
<text x="51" y="151" fill="#adc0c7" font-family="Arial, sans-serif" font-size="20" font-weight="500">Classifies roots on either side of the guide curve; points stay in place.</text>
<rect x="140" y="220" width="920" height="330" rx="14" fill="#1c2d33" stroke="#52676a"/><path d="M600 225 L600 545" stroke="#e3d5ba" stroke-width="4" stroke-dasharray="12 9"/><circle cx="185" cy="270" r="6" fill="#7fc1cb"/><circle cx="267" cy="270" r="6" fill="#7fc1cb"/><circle cx="349" cy="270" r="6" fill="#7fc1cb"/><circle cx="431" cy="270" r="6" fill="#7fc1cb"/><circle cx="513" cy="270" r="6" fill="#7fc1cb"/><circle cx="595" cy="270" r="6" fill="#7fc1cb"/><circle cx="677" cy="270" r="6" fill="#e7ad7d"/><circle cx="759" cy="270" r="6" fill="#e7ad7d"/><circle cx="841" cy="270" r="6" fill="#e7ad7d"/><circle cx="923" cy="270" r="6" fill="#e7ad7d"/><circle cx="1005" cy="270" r="6" fill="#e7ad7d"/><circle cx="201" cy="325" r="6" fill="#7fc1cb"/><circle cx="283" cy="325" r="6" fill="#7fc1cb"/><circle cx="365" cy="325" r="6" fill="#7fc1cb"/><circle cx="447" cy="325" r="6" fill="#7fc1cb"/><circle cx="529" cy="325" r="6" fill="#7fc1cb"/><circle cx="611" cy="325" r="6" fill="#e7ad7d"/><circle cx="693" cy="325" r="6" fill="#e7ad7d"/><circle cx="775" cy="325" r="6" fill="#e7ad7d"/><circle cx="857" cy="325" r="6" fill="#e7ad7d"/><circle cx="939" cy="325" r="6" fill="#e7ad7d"/><circle cx="1021" cy="325" r="6" fill="#e7ad7d"/><circle cx="185" cy="380" r="6" fill="#7fc1cb"/><circle cx="267" cy="380" r="6" fill="#7fc1cb"/><circle cx="349" cy="380" r="6" fill="#7fc1cb"/><circle cx="431" cy="380" r="6" fill="#7fc1cb"/><circle cx="513" cy="380" r="6" fill="#7fc1cb"/><circle cx="595" cy="380" r="6" fill="#7fc1cb"/><circle cx="677" cy="380" r="6" fill="#e7ad7d"/><circle cx="759" cy="380" r="6" fill="#e7ad7d"/><circle cx="841" cy="380" r="6" fill="#e7ad7d"/><circle cx="923" cy="380" r="6" fill="#e7ad7d"/><circle cx="1005" cy="380" r="6" fill="#e7ad7d"/><circle cx="201" cy="435" r="6" fill="#7fc1cb"/><circle cx="283" cy="435" r="6" fill="#7fc1cb"/><circle cx="365" cy="435" r="6" fill="#7fc1cb"/><circle cx="447" cy="435" r="6" fill="#7fc1cb"/><circle cx="529" cy="435" r="6" fill="#7fc1cb"/><circle cx="611" cy="435" r="6" fill="#e7ad7d"/><circle cx="693" cy="435" r="6" fill="#e7ad7d"/><circle cx="775" cy="435" r="6" fill="#e7ad7d"/><circle cx="857" cy="435" r="6" fill="#e7ad7d"/><circle cx="939" cy="435" r="6" fill="#e7ad7d"/><circle cx="1021" cy="435" r="6" fill="#e7ad7d"/><circle cx="185" cy="490" r="6" fill="#7fc1cb"/><circle cx="267" cy="490" r="6" fill="#7fc1cb"/><circle cx="349" cy="490" r="6" fill="#7fc1cb"/><circle cx="431" cy="490" r="6" fill="#7fc1cb"/><circle cx="513" cy="490" r="6" fill="#7fc1cb"/><circle cx="595" cy="490" r="6" fill="#7fc1cb"/><circle cx="677" cy="490" r="6" fill="#e7ad7d"/><circle cx="759" cy="490" r="6" fill="#e7ad7d"/><circle cx="841" cy="490" r="6" fill="#e7ad7d"/><circle cx="923" cy="490" r="6" fill="#e7ad7d"/><circle cx="1005" cy="490" r="6" fill="#e7ad7d"/><text x="245" y="584" fill="#7fc1cb" font-family="Arial, sans-serif" font-size="22" font-weight="700">partId = 0</text><text x="802" y="584" fill="#e7ad7d" font-family="Arial, sans-serif" font-size="22" font-weight="700">partId = 1</text>
<path d="M 48 610 H 1152" stroke="#3a5158"/>
<text x="50" y="639" fill="#a8bec5" font-family="Arial, sans-serif" font-size="16" font-weight="500">Uniform partId output plane · illustrative layout of the kernel contract</text>
</svg>
