#usda 1.0
# Copyright (c) 2026 Nick Burkard
# SPDX-License-Identifier: MIT
(
    defaultPrim = "World"
    startTimeCode = 0
    endTimeCode = 99
    timeCodesPerSecond = 24
    framesPerSecond = 24
    metersPerUnit = 1
    upAxis = "Y"
    doc = "A closed sphere descends onto dense clumped fur, then slides in +Z over a closed scalp collider."
)
def Xform "World" {
    def Camera "Cam" {
        matrix4d xformOp:transform = ( (0.73802881, 0.00000000, -0.67476920, 0.00000000), (-0.41784357, 0.78520237, -0.45701641, 0.00000000), (0.52983037, 0.61923925, 0.57950197, 0.00000000), (2.10000000, 1.95000000, 2.25000000, 1.00000000) )
        uniform token[] xformOpOrder = ["xformOp:transform"]
        float2 clippingRange = (0.02, 50)
        float focalLength = 44
        float horizontalAperture = 36
        float verticalAperture = 24
    }
    def Camera "CamMotion" {
        matrix4d xformOp:transform = ( (0.73593101, 0.00000000, -0.67705653, 0.00000000), (-0.40130721, 0.80540613, -0.43620349, 0.00000000), (0.54530548, 0.59272335, 0.59272335, 0.00000000), (2.80000000, 3.35000000, 3.00000000, 1.00000000) )
        uniform token[] xformOpOrder = ["xformOp:transform"]
        float2 clippingRange = (0.02, 50)
        float focalLength = 40
        float horizontalAperture = 36
        float verticalAperture = 24
    }
    def DistantLight "Key" {
        color3f inputs:color = (1, 0.79, 0.60)
        float inputs:intensity = 1.4
        bool inputs:normalize = true
        float3 xformOp:rotateXYZ = (-20, -35, -15)
        uniform token[] xformOpOrder = ["xformOp:rotateXYZ"]
    }
    def DistantLight "Rim" {
        color3f inputs:color = (0.59, 0.79, 1)
        float inputs:intensity = 0.45
        bool inputs:normalize = true
        float3 xformOp:rotateXYZ = (55, 148, 0)
        uniform token[] xformOpOrder = ["xformOp:rotateXYZ"]
    }
    def DistantLight "Fill" {
        color3f inputs:color = (0.84, 0.90, 1)
        float inputs:intensity = 0.85
        bool inputs:normalize = true
        float3 xformOp:rotateXYZ = (-50, 15, 0)
        uniform token[] xformOpOrder = ["xformOp:rotateXYZ"]
    }
    def DomeLight "Sky" {
        asset inputs:texture:file = @../../maps/StinsonBeach.hdr@
        color3f inputs:color = (0.82, 0.88, 1)
        float inputs:intensity = 0.5
    }
    def Scope "Looks" {
        def Material "Base" {
            token outputs:surface.connect = </World/Looks/Base/Surface.outputs:surface>
            def Shader "Surface" {
                uniform token info:id = "UsdPreviewSurface"
                color3f inputs:diffuseColor = (0.035, 0.043, 0.051)
                float inputs:roughness = 0.92
                token outputs:surface
            }
        }
        def Material "Fur" {
            token outputs:surface.connect = </World/Looks/Fur/Surface.outputs:surface>
            def Shader "Surface" {
                uniform token info:id = "UsdGenHairStrands"
                color3f inputs:baseColor = (0.63, 0.40, 0.20)
                color3f inputs:tipColor = (0.85, 0.65, 0.36)
                float inputs:roughness = 0.55
                float inputs:specular = 0.35
                float inputs:scatter = 0.36
                float inputs:selfShadow = 0.48
                float inputs:randomRoughness = 0.12
                token outputs:surface
            }
        }
        def Material "Shield" {
            token outputs:surface.connect = </World/Looks/Shield/Surface.outputs:surface>
            def Shader "Surface" {
                uniform token info:id = "UsdPreviewSurface"
                color3f inputs:diffuseColor = (0.11, 0.34, 0.43)
                float inputs:metallic = 0.08
                float inputs:roughness = 0.58
                token outputs:surface
            }
        }
    }
    def Mesh "Patch" (prepend apiSchemas = ["UsdGenRestAPI", "MaterialBindingAPI"]) {
        rel material:binding = </World/Looks/Base>
        uniform token subdivisionScheme = "none"
        int[] faceVertexCounts = [4]
        int[] faceVertexIndices = [0, 3, 2, 1]
        point3f[] points = [(0, 0, 0), (1, 0, 0), (1, 0, 1), (0, 0, 1)]
        point3f[] primvars:rest = [(0, 0, 0), (1, 0, 0), (1, 0, 1), (0, 0, 1)] (interpolation = "vertex")
        texCoord2f[] primvars:st = [(0, 0), (1, 0), (1, 1), (0, 1)] (interpolation = "vertex")
    }
    def Mesh "Backdrop" (prepend apiSchemas = ["MaterialBindingAPI"]) {
        rel material:binding = </World/Looks/Base>
        uniform token subdivisionScheme = "none"
        int[] faceVertexCounts = [4]
        int[] faceVertexIndices = [0, 3, 2, 1]
        point3f[] points = [(-20, -0.055, -20), (20, -0.055, -20), (20, -0.055, 20), (-20, -0.055, 20)]
    }
    def Mesh "Shield" (
        apiSchemas = ["MaterialBindingAPI"]
    )
    {
        int[] faceVertexCounts = [4, 4, 4, 4, 4, 4, 4, 4, 4, 4, 4, 4, 4, 4, 4, 4, 4, 4, 4, 4, 4, 4, 4, 4, 4, 4, 4, 4, 4, 4, 4, 4, 4, 4, 4, 4, 4, 4, 4, 4, 4, 4, 4, 4, 4, 4, 4, 4, 4, 4, 4, 4, 4, 4, 4, 4, 4, 4, 4, 4, 4, 4, 4, 4, 4, 4, 4, 4, 4, 4, 4, 4, 4, 4, 4, 4, 4, 4, 4, 4, 4, 4, 4, 4, 4, 4, 4, 4, 4, 4, 4, 4, 4, 4, 4, 4]
        int[] faceVertexIndices = [3, 2, 1, 0, 5, 4, 2, 3, 7, 6, 4, 5, 9, 8, 6, 7, 2, 11, 10, 1, 4, 12, 11, 2, 6, 13, 12, 4, 8, 14, 13, 6, 11, 16, 15, 10, 12, 17, 16, 11, 13, 18, 17, 12, 14, 19, 18, 13, 16, 21, 20, 15, 17, 22, 21, 16, 18, 23, 22, 17, 19, 24, 23, 18, 25, 26, 27, 28, 28, 27, 29, 30, 30, 29, 31, 32, 32, 31, 33, 34, 26, 35, 36, 27, 27, 36, 37, 29, 29, 37, 38, 31, 31, 38, 39, 33, 35, 40, 41, 36, 36, 41, 42, 37, 37, 42, 43, 38, 38, 43, 44, 39, 40, 45, 46, 41, 41, 46, 47, 42, 42, 47, 48, 43, 43, 48, 49, 44, 0, 50, 51, 3, 3, 51, 52, 5, 5, 52, 53, 7, 7, 53, 54, 9, 50, 55, 56, 51, 51, 56, 57, 52, 52, 57, 58, 53, 53, 58, 59, 54, 55, 60, 61, 56, 56, 61, 62, 57, 57, 62, 63, 58, 58, 63, 64, 59, 60, 25, 28, 61, 61, 28, 30, 62, 62, 30, 32, 63, 63, 32, 34, 64, 21, 66, 65, 20, 22, 67, 66, 21, 23, 68, 67, 22, 24, 69, 68, 23, 66, 71, 70, 65, 67, 72, 71, 66, 68, 73, 72, 67, 69, 74, 73, 68, 71, 76, 75, 70, 72, 77, 76, 71, 73, 78, 77, 72, 74, 79, 78, 73, 76, 46, 45, 75, 77, 47, 46, 76, 78, 48, 47, 77, 79, 49, 48, 78, 1, 80, 50, 0, 10, 81, 80, 1, 15, 82, 81, 10, 20, 65, 82, 15, 80, 83, 55, 50, 81, 84, 83, 80, 82, 85, 84, 81, 65, 70, 85, 82, 83, 86, 60, 55, 84, 87, 86, 83, 85, 88, 87, 84, 70, 75, 88, 85, 86, 26, 25, 60, 87, 35, 26, 86, 88, 40, 35, 87, 75, 45, 40, 88, 9, 54, 89, 8, 8, 89, 90, 14, 14, 90, 91, 19, 19, 91, 69, 24, 54, 59, 92, 89, 89, 92, 93, 90, 90, 93, 94, 91, 91, 94, 74, 69, 59, 64, 95, 92, 92, 95, 96, 93, 93, 96, 97, 94, 94, 97, 79, 74, 64, 34, 33, 95, 95, 33, 39, 96, 96, 39, 44, 97, 97, 44, 49, 79]
        rel material:binding = </World/Looks/Shield>
        point3f[] points = [(-0.30599564, -0.30599564, -0.30599564), (-0.35333332, -0.17666666, -0.35333332), (-0.4327432, -0.2163716, -0.2163716), (-0.35333332, -0.35333332, -0.17666666), (-0.4740464, -0.2370232, 0), (-0.3747666, -0.3747666, 0), (-0.4327432, -0.2163716, 0.2163716), (-0.35333332, -0.35333332, 0.17666666), (-0.35333332, -0.17666666, 0.35333332), (-0.30599564, -0.30599564, 0.30599564), (-0.3747666, 0, -0.3747666), (-0.4740464, 0, -0.2370232), (-0.53, 0, 0), (-0.4740464, 0, 0.2370232), (-0.3747666, 0, 0.3747666), (-0.35333332, 0.17666666, -0.35333332), (-0.4327432, 0.2163716, -0.2163716), (-0.4740464, 0.2370232, 0), (-0.4327432, 0.2163716, 0.2163716), (-0.35333332, 0.17666666, 0.35333332), (-0.30599564, 0.30599564, -0.30599564), (-0.35333332, 0.35333332, -0.17666666), (-0.3747666, 0.3747666, 0), (-0.35333332, 0.35333332, 0.17666666), (-0.30599564, 0.30599564, 0.30599564), (0.30599564, -0.30599564, -0.30599564), (0.35333332, -0.17666666, -0.35333332), (0.4327432, -0.2163716, -0.2163716), (0.35333332, -0.35333332, -0.17666666), (0.4740464, -0.2370232, 0), (0.3747666, -0.3747666, 0), (0.4327432, -0.2163716, 0.2163716), (0.35333332, -0.35333332, 0.17666666), (0.35333332, -0.17666666, 0.35333332), (0.30599564, -0.30599564, 0.30599564), (0.3747666, 0, -0.3747666), (0.4740464, 0, -0.2370232), (0.53, 0, 0), (0.4740464, 0, 0.2370232), (0.3747666, 0, 0.3747666), (0.35333332, 0.17666666, -0.35333332), (0.4327432, 0.2163716, -0.2163716), (0.4740464, 0.2370232, 0), (0.4327432, 0.2163716, 0.2163716), (0.35333332, 0.17666666, 0.35333332), (0.30599564, 0.30599564, -0.30599564), (0.35333332, 0.35333332, -0.17666666), (0.3747666, 0.3747666, 0), (0.35333332, 0.35333332, 0.17666666), (0.30599564, 0.30599564, 0.30599564), (-0.17666666, -0.35333332, -0.35333332), (-0.2163716, -0.4327432, -0.2163716), (-0.2370232, -0.4740464, 0), (-0.2163716, -0.4327432, 0.2163716), (-0.17666666, -0.35333332, 0.35333332), (0, -0.3747666, -0.3747666), (0, -0.4740464, -0.2370232), (0, -0.53, 0), (0, -0.4740464, 0.2370232), (0, -0.3747666, 0.3747666), (0.17666666, -0.35333332, -0.35333332), (0.2163716, -0.4327432, -0.2163716), (0.2370232, -0.4740464, 0), (0.2163716, -0.4327432, 0.2163716), (0.17666666, -0.35333332, 0.35333332), (-0.17666666, 0.35333332, -0.35333332), (-0.2163716, 0.4327432, -0.2163716), (-0.2370232, 0.4740464, 0), (-0.2163716, 0.4327432, 0.2163716), (-0.17666666, 0.35333332, 0.35333332), (0, 0.3747666, -0.3747666), (0, 0.4740464, -0.2370232), (0, 0.53, 0), (0, 0.4740464, 0.2370232), (0, 0.3747666, 0.3747666), (0.17666666, 0.35333332, -0.35333332), (0.2163716, 0.4327432, -0.2163716), (0.2370232, 0.4740464, 0), (0.2163716, 0.4327432, 0.2163716), (0.17666666, 0.35333332, 0.35333332), (-0.2163716, -0.2163716, -0.4327432), (-0.2370232, 0, -0.4740464), (-0.2163716, 0.2163716, -0.4327432), (0, -0.2370232, -0.4740464), (0, 0, -0.53), (0, 0.2370232, -0.4740464), (0.2163716, -0.2163716, -0.4327432), (0.2370232, 0, -0.4740464), (0.2163716, 0.2163716, -0.4327432), (-0.2163716, -0.2163716, 0.4327432), (-0.2370232, 0, 0.4740464), (-0.2163716, 0.2163716, 0.4327432), (0, -0.2370232, 0.4740464), (0, 0, 0.53), (0, 0.2370232, 0.4740464), (0.2163716, -0.2163716, 0.4327432), (0.2370232, 0, 0.4740464), (0.2163716, 0.2163716, 0.4327432)]
        uniform token subdivisionScheme = "catmullClark"
        double3 xformOp:translate = (0.5, 0.525, 0.85)
        double3 xformOp:translate.timeSamples = {
            0: (0.5, 1.45, 0.5),
            27: (0.5, 0.525, 0.5),
            99: (0.5, 0.525, 0.85),
        }
        uniform token[] xformOpOrder = ["xformOp:translate"]
    }

    def Xform "Groom" {
        def UsdGenDescription "Fur" (prepend apiSchemas = ["UsdGenLookAPI", "MaterialBindingAPI"]) {
            rel material:binding = </World/Looks/Fur>
            rel usdGen:surface = </World/Patch>
            token usdGen:curve:basis = "bspline"
            float usdGen:width:default = 0.0012
            int usdGen:look:jitterSeed = 113
            color3f usdGen:look:rootColor = (0.63, 0.40, 0.20)
            color3f usdGen:look:tipColor = (0.85, 0.65, 0.36)
            float usdGen:look:valueJitter = 0.055

            def Scope "Ops" {
            def UsdGenWidth "width" {
                float usdGen:width = 0.00125
                float2[] usdGen:width:knots = [(0, 1), (0.5, 0.62), (1, 0.018)]
            }
            def UsdGenCollide "collide" {
                rel usdGen:colliders = [</World/Shield>, </World/ScalpVolume>]
                float usdGen:pushAmount = 1
                float usdGen:offset = 0
                int usdGen:iterations = 128
                token usdGen:resolveType = "stiff"
                uniform token usdGen:deepPenetrationMode = "cutThenCollide"
                float usdGen:cutDepthThreshold = 0.01
                float usdGen:cutBlendDepth = 0.02
            }
            def UsdGenClump "clump" {
                float usdGen:clump:amount = 0.85
                float usdGen:clump:density = 36
                float usdGen:clump:size = 0.12
                float2[] usdGen:clump:profile:knots = [(0, 0), (0.3, 0.3), (1, 1)]
            }
            def UsdGenNoise "baseNoise" {
                int usdGen:seed = 37
                float usdGen:noise:magnitude = 0.0015
                float usdGen:noise:frequency = 3.5
                float2[] usdGen:noise:magnitude:knots = [(0, 0), (0.5, 0.24), (1, 1)]
            }
            def UsdGenBend "baseBend" {
                float usdGen:angle = 5
                float2[] usdGen:angle:knots = [(0, 0), (0.45, 0.35), (1, 1)]
                float2 usdGen:angleRandom = (0.68, 1.18)
            }
            def UsdGenGrow "grow" {
                int usdGen:seed = 19
                int usdGen:segments = 18
                float usdGen:length = 0.42
                float2 usdGen:lengthRandom = (0.88, 1.08)
                token usdGen:direction = "vector"
                vector3f usdGen:directionVector = (0.12, 0.99, 0.05)
            }
            def UsdGenScatter "scatter" {
                int usdGen:seed = 41
                float usdGen:density = 8000
            }
            }
        }
    }

    def Mesh "ScalpVolume" {
        uniform token subdivisionScheme = "none"
        int[] faceVertexCounts = [3, 3, 3, 3, 3, 3, 3, 3, 3, 3, 3, 3]
        int[] faceVertexIndices = [0, 1, 2, 0, 2, 3, 4, 6, 5, 4, 7, 6, 0, 5, 1, 0, 4, 5, 3, 2, 6, 3, 6, 7, 0, 3, 7, 0, 7, 4, 1, 5, 6, 1, 6, 2]
        point3f[] points = [(-0.5, -0.1, -0.5), (1.5, -0.1, -0.5), (1.5, -0.1, 1.5), (-0.5, -0.1, 1.5), (-0.5, 0, -0.5), (1.5, 0, -0.5), (1.5, 0, 1.5), (-0.5, 0, 1.5)]
        token visibility = "invisible"
    }
}


